<svg id="Background" xmlns="http://www.w3.org/2000/svg" viewBox="0 0 173.77 229.09"><defs><style>.cls-1{fill:#fff;}.cls-2,.cls-5,.cls-6,.cls-8{fill:none;}.cls-2{stroke:#b72f26;}.cls-2,.cls-5,.cls-6{stroke-miterlimit:10;}.cls-3{fill:#231f20;}.cls-4{font-size:6.2px;}.cls-4,.cls-7{fill:#a0cc3a;font-family:Source Sans Pro;font-weight:700;}.cls-5{stroke:#6d6e71;stroke-width:0.5px;}.cls-6{stroke:#6db680;stroke-width:2px;}.cls-7{font-size:1.67px;}</style></defs><title>bitcoin5</title><rect class="cls-1" x="-12.22" y="-8.86" width="555.61" height="480.31"/><line class="cls-2" x1="247.13" y1="104.6" x2="-190.62" y2="104.6"/><rect class="cls-3" x="136.17" y="33.79" width="32.6" height="16.3" rx="8.15" ry="8.15"/><rect class="cls-3" x="153.92" y="69.91" width="32.6" height="16.3" rx="8.15" ry="8.15"/><text class="cls-4" transform="translate(139.15 43.68)">0479BE66</text><text class="cls-4" transform="translate(158.4 79.81)">F9DCBB</text><line class="cls-5" x1="167.97" y1="46.81" x2="173.86" y2="69.91"/><line class="cls-5" x1="167.97" y1="46.81" x2="173.86" y2="49.61"/><path class="cls-6" d="M157,32c36.51-10.29,66.63,11.11,78.24,21.16"/><rect class="cls-3" x="31.51" y="99.97" width="34.81" height="9.27"/><text class="cls-7" transform="translate(33.68 102.79)">04 79BE667E F9DCBB<tspan x="15.52" y="0">A</tspan><tspan x="16.46" y="0">C 55A06295 CE870B</tspan><tspan x="0" y="1.67">07029B</tspan><tspan x="5.43" y="1.67">F</tspan><tspan x="6.29" y="1.67">CDB 2DCE28D9 59F2815B 16F8179</tspan><tspan x="0" y="3.35">483A</tspan><tspan x="3.61" y="3.35">D</tspan><tspan x="4.66" y="3.35">A77 26A3C465 5</tspan><tspan x="16.17" y="3.35">D</tspan><tspan x="17.21" y="3.35">A4FB</tspan><tspan x="20.95" y="3.35">F</tspan><tspan x="21.8" y="3.35">C 0E1108A8</tspan><tspan x="0" y="5.02">FD17B448 A6855419 9C47D08F FB10D4B8</tspan></text><rect class="cls-3" x="84.34" y="99.97" width="34.81" height="9.27"/><text class="cls-7" transform="translate(86.52 102.79)">04 79BE667E F9DCBB<tspan x="15.52" y="0">A</tspan><tspan x="16.46" y="0">C 55A06295 CE870B</tspan><tspan x="0" y="1.67">07029B</tspan><tspan x="5.43" y="1.67">F</tspan><tspan x="6.29" y="1.67">CDB 2DCE28D9 59F2815B 16F8179</tspan><tspan x="0" y="3.35">483A</tspan><tspan x="3.61" y="3.35">D</tspan><tspan x="4.66" y="3.35">A77 26A3C465 5</tspan><tspan x="16.17" y="3.35">D</tspan><tspan x="17.21" y="3.35">A4FB</tspan><tspan x="20.95" y="3.35">F</tspan><tspan x="21.8" y="3.35">C 0E1108A8</tspan><tspan x="0" y="5.02">FD17B448 A6855419 9C47D08F FB10D4B8</tspan></text><rect class="cls-3" x="9.41" y="30.7" width="32.6" height="16.3" rx="8.15" ry="8.15"/><text class="cls-4" transform="translate(16.43 40.59)">FB10D</text><polygon class="cls-5" points="-19.11 37.62 -1.03 75.15 12.76 45.65 -19.11 37.62"/><line class="cls-5" x1="-53.66" y1="70.1" x2="12.76" y2="45.65"/><rect class="cls-3" x="16.31" y="151.72" width="32.6" height="16.3" rx="8.15" ry="8.15"/><text class="cls-4" transform="translate(23.33 161.61)">FB10D</text><line class="cls-5" x1="21.31" y1="152.21" x2="34.24" y2="129.02"/><line class="cls-5" x1="-18.8" y1="163.36" x2="16.73" y2="163.36"/><polygon class="cls-5" points="-1.59 79.89 -32.17 153.46 34.24 129.02 -1.59 79.89"/><rect class="cls-3" x="30.9" y="121.04" width="32.6" height="16.3" rx="8.15" ry="8.15"/><text class="cls-4" transform="translate(37.92 130.93)">FB10D</text><rect class="cls-3" x="-17.89" y="70.1" width="32.6" height="16.3" rx="8.15" ry="8.15"/><text class="cls-4" transform="translate(-10.76 79.99)">FB10D</text><path class="cls-3" d="M82.73,54.65a5,5,0,0,0-.68,3c0.08,1.27-.34,1.78-0.08,3.56s0.93,3.05.51,4.66-0.08,3-.08,4.49A16.71,16.71,0,0,1,82.22,74C82,75.26,82.39,84,82,85.52s-0.25,2.29-.68,2.71,0.08,1.44.08,2.54-0.34,2.54-.85,2.2-0.65.68-3.54,1.53-5.43.25-5.68-.42,1.46-1.79,2.3-2.89,1.06-2.1,1.74-3.12-0.59.42-.34-1.19-0.34-4.16,0-6.28,1.19-2.79.85-4.4,0.76-1.87-.08-3.05-0.42-2.8-.85-4.07S74.5,67,74.25,66.45a11.32,11.32,0,0,1-.76-3.14c0.21-2.85-1.26,1-2.88,2.51s-1.12,1.52-1.55,3S69,71,69.23,72.62s0.71,2.16.71,4.28a28.59,28.59,0,0,0,.49,6.33,6.25,6.25,0,0,1,.17,3.48c-0.25.68-.25,3.05-0.51,4.32s-2.37,1-2.8.76-1.1,0-3.43.89-7.16-.27-7.69-0.36-0.32-.11-0.4-0.49-0.23-.81.7-1.21,2.39,0.12,3.68-.47a30.17,30.17,0,0,0,4.39-3.39c0.47-.38.59-0.53,0.13-0.51s-0.66.11-.55-1.65A34.25,34.25,0,0,0,62.73,75c-1.1-3.9-1.19-6.71-1.48-7.65s-0.11-3.22.47-3.77S63,60,63.94,58.07c1.27-2.63.24-2.82,0.21-3.14s0,0-.42-0.53a0.67,0.67,0,0,1-.21-0.68,1,1,0,0,1-.64-0.47,2.35,2.35,0,0,1,.25-1.19c0-.19-8.14-10.81-8.4-11.11a2.58,2.58,0,0,0-1.17-.36C53,40.39,53.51,40,53.2,40s-0.47.08-.47-0.25A1.07,1.07,0,0,0,52.09,39a1.51,1.51,0,0,1-.3-0.85c-0.15-.17-0.83.17-0.91-0.47a1.13,1.13,0,0,1,.64-1.06c0.15-.11-6.55-8.44-7.72-9.88s-1.23-1.36-2-1.38-0.57-.11-2.37,1.23-4.85,4.9-6,5.72-0.66-1,1.57-3.56a57.09,57.09,0,0,1,5.66-5.49c0.23-.21-0.38-0.66-0.57-0.91s-0.68-.45.23-1.38a1.42,1.42,0,0,1,2.31,0c0.55,0.64.3,0.78,0.83,0.45a83,83,0,0,1,9.05-5.28c2.8-1.17,2.35,0,.72,1.31s-8,5.43-8,5.72a5.15,5.15,0,0,0,0,1.4c0.15,0.23,8,11,8,11l0.49-.13a2.65,2.65,0,0,1,2,.47c0.89,0.51.55,0.49,1.53,0.06s6.23-4.3,7.08-4.71a3,3,0,0,1,1.84-.4c0.78,0,.57-0.34,1.19-0.3s0.42-.4.93-0.42,0.38-.42.78-0.59a5.11,5.11,0,0,0,1-.59,8.08,8.08,0,0,0,1.7-1.8c0.34-.47.74-0.28,1.8-0.78a16.5,16.5,0,0,1,3.88-1.23,0.59,0.59,0,0,0,.66-0.66c0-.3.13-0.38-0.08-0.42a0.37,0.37,0,0,1-.34-0.49c0-.38.08-0.42-0.32-0.47s-0.17-.74,0-1.44a1,1,0,0,0-.17-1.23,1.59,1.59,0,0,1-.49-1c0-.32-2.86.3-2.76-0.72s2.06-1,2.27-1-0.49-1.42.81-3.39,3.9-2.48,6.44-2.31,3.52,3.26,3.6,3.92,0.23,1.14.3,1.78a2.31,2.31,0,0,0,.23,1.4c0.34,0.49-.45.78-0.74,0.66s-0.55.25-.57,0.83a2.06,2.06,0,0,1-.53,1.29A1.45,1.45,0,0,0,85.57,23a10.88,10.88,0,0,1,.85,2c0.3,1.23-.68,1.44.21,2.5A17.92,17.92,0,0,1,89,32.61a7.74,7.74,0,0,1,.42,4.83c-0.3,1.27-1.23,1.23-1.1,2.3s-0.3.75-.59,1.77-0.93,1.61-1.36,2.93-0.85,1.7-.81,2.25,0.42,2.29,0,2.63a3.77,3.77,0,0,1-1.53.3,0.9,0.9,0,0,0-.85,1.06A5.82,5.82,0,0,1,82.73,54.65ZM63.59,49c0.79,0.79.85,1.19,1.37,1.13s1.49,0.88,2.33,1.39,1.27-1.1,2.91-2.35,1.24-1.36,1.18-2.09a15.42,15.42,0,0,1,.34-2.71,7.79,7.79,0,0,1,1-2.71,1.55,1.55,0,0,0-.23-1.91,4,4,0,0,1,.28-3.06c0.57-.79.06-1.92,0-2.32s-1.36,1.13-2.26,1.13-0.68.79-1.75,0.79a2.39,2.39,0,0,0-2,.85c-0.79.62-1.19-.28-1.64,0a56.53,56.53,0,0,1-7.18,2.61c-1,.12-1.35,0-0.68.84C58.05,41.59,62.8,48.21,63.59,49Z"/><path class="cls-3" d="M103.05,49.68a0.9,0.9,0,0,0-.85-1.06,3.77,3.77,0,0,1-1.53-.3c-0.42-.34,0-2.08,0-2.63s-0.38-.93-0.81-2.25-1.06-1.91-1.36-2.93-0.72-.7-0.59-1.77-0.81-1-1.1-2.3a7.74,7.74,0,0,1,.42-4.83,17.92,17.92,0,0,1,2.37-5.09c0.89-1.06-.08-1.27.21-2.5a10.88,10.88,0,0,1,.85-2,1.45,1.45,0,0,0-.21-1.21,2.06,2.06,0,0,1-.53-1.29c0-.57-0.28-1-0.57-0.83s-1.08-.17-0.74-0.66a2.31,2.31,0,0,0,.23-1.4c0.06-.64.21-1.12,0.3-1.78s1.06-3.75,3.6-3.92,5.15,0.34,6.44,2.31,0.59,3.37.81,3.39,2.16,0,2.27,1-2.71.4-2.76,0.72a1.59,1.59,0,0,1-.49,1,1,1,0,0,0-.17,1.23c0.19,0.7.42,1.4,0,1.44s-0.34.08-.32,0.47a0.37,0.37,0,0,1-.34.49c-0.21,0-.08.13-0.08,0.42a0.59,0.59,0,0,0,.66.66,16.5,16.5,0,0,1,3.88,1.23c1.06,0.51,1.46.32,1.8,0.78a8.08,8.08,0,0,0,1.7,1.8,5.11,5.11,0,0,0,1,.59c0.4,0.17.28,0.57,0.78,0.59s0.32,0.47.93,0.42,0.4,0.32,1.19.3a3,3,0,0,1,1.84.4c0.85,0.4,6.11,4.28,7.08,4.71s0.64,0.45,1.53-.06a2.65,2.65,0,0,1,2-.47L133,34.51s7.82-10.73,8-11a5.15,5.15,0,0,0,0-1.4c0-.3-6.38-4.41-8-5.72s-2.08-2.48.72-1.31a83,83,0,0,1,9.05,5.28c0.53,0.34.28,0.19,0.83-.45a1.42,1.42,0,0,1,2.31,0c0.91,0.93.42,1.12,0.23,1.38s-0.81.7-.57,0.91a57.09,57.09,0,0,1,5.66,5.49c2.23,2.61,2.69,4.39,1.57,3.56s-4.18-4.39-6-5.72-1.63-1.25-2.37-1.23-0.81-.06-2,1.38-7.87,9.77-7.72,9.88a1.13,1.13,0,0,1,.64,1.06c-0.08.64-.76,0.3-0.91,0.47a1.51,1.51,0,0,1-.3.85,1.07,1.07,0,0,0-.64.75c0,0.33-.15.18-0.47,0.25s0.23,0.4-.38.61a2.58,2.58,0,0,0-1.17.36c-0.25.3-8.4,10.92-8.4,11.11a2.35,2.35,0,0,1,.25,1.19,1,1,0,0,1-.64.47,0.67,0.67,0,0,1-.21.68c-0.42.53-.4,0.21-0.42,0.53s-1.06.51,0.21,3.14c1,2,1.65,5,2.23,5.53s0.76,2.84.47,3.77-0.38,3.75-1.48,7.65a34.25,34.25,0,0,0-1.39,9.59c0.11,1.76-.08,1.67-0.55,1.65s-0.34.13,0.13,0.51a30.17,30.17,0,0,0,4.39,3.39c1.29,0.59,2.75.07,3.68,0.47s0.78,0.83.7,1.21,0.13,0.4-.4.49-5.36,1.2-7.69.36-3-1.14-3.43-.89-2.54.51-2.8-.76-0.25-3.65-.51-4.32a6.25,6.25,0,0,1,.17-3.48,28.59,28.59,0,0,0,.49-6.33c0-2.12.45-2.67,0.71-4.28s0.59-2.22.17-3.75,0.07-1.52-1.55-3-3.08-5.36-2.88-2.51a11.32,11.32,0,0,1-.76,3.14c-0.25.51-.34,1.36-0.76,2.63s0,2.88-.85,4.07,0.25,1.44-.08,3.05,0.51,2.28.85,4.4-0.25,4.67,0,6.28-1,.17-0.34,1.19,0.89,2,1.74,3.12,2.56,2.22,2.3,2.89-2.8,1.27-5.68.42-3-1.87-3.54-1.53-0.85-1.1-.85-2.2,0.51-2.12.08-2.54-0.34-1.19-.68-2.71S104.28,74.28,104,73a16.71,16.71,0,0,1-.17-3.65c0-1.53.34-2.88-.08-4.49s0.25-2.88.51-4.66-0.17-2.29-.08-3.56a5,5,0,0,0-.68-3A5.82,5.82,0,0,1,103.05,49.68ZM129,39.59c0.67-.86.34-0.72-0.68-0.84a56.53,56.53,0,0,1-7.18-2.61c-0.45-.28-0.85.62-1.64,0a2.39,2.39,0,0,0-2-.85c-1.07,0-.85-0.79-1.75-0.79s-2.2-1.53-2.26-1.13-0.57,1.53,0,2.32a4,4,0,0,1,.28,3.06,1.55,1.55,0,0,0-.23,1.91,7.79,7.79,0,0,1,1,2.71,15.42,15.42,0,0,1,.34,2.71c-0.06.73-.46,0.85,1.18,2.09S118.11,51,119,50.53s1.81-1.44,2.33-1.39,0.58-.34,1.37-1.13S128.2,40.61,129,39.59Z"/><rect class="cls-8" x="0.46" y="-228.85" width="173.77" height="229.09"/><rect class="cls-8" x="0.46" y="-0.24" width="173.77" height="229.09"/></svg>