<svg id="Background" xmlns="http://www.w3.org/2000/svg" viewBox="0 0 173.77 229.09"><defs><style>.cls-1{fill:#fff;}.cls-2,.cls-3,.cls-7{fill:none;}.cls-2{stroke:#b72f26;}.cls-2,.cls-3{stroke-miterlimit:10;}.cls-3{stroke:#6d6e71;stroke-width:0.5px;}.cls-4{fill:#231f20;}.cls-5{font-size:6.2px;}.cls-5,.cls-6{fill:#a0cc3a;font-family:Source Sans Pro;font-weight:700;}.cls-6{font-size:1.67px;}</style></defs><title>bitcoin3</title><rect class="cls-1" x="-12.22" y="-8.86" width="555.61" height="480.31"/><line class="cls-2" x1="269.84" y1="105.09" x2="-329.09" y2="105.09"/><polyline class="cls-3" points="100.5 77.59 52.15 79.1 69.92 151.16"/><rect class="cls-4" x="10.75" y="31.67" width="32.6" height="16.3" rx="8.15" ry="8.15"/><rect class="cls-4" x="28.5" y="67.8" width="32.6" height="16.3" rx="8.15" ry="8.15"/><rect class="cls-4" x="64.32" y="19.02" width="32.6" height="16.3" rx="8.15" ry="8.15"/><rect class="cls-4" x="111.51" y="28.4" width="32.6" height="16.3" rx="8.15" ry="8.15"/><text class="cls-5" transform="translate(13.72 41.56)">0479BE66</text><text class="cls-5" transform="translate(32.98 77.69)">F9DCBB</text><text class="cls-5" transform="translate(72.66 29.4)">59F28</text><text class="cls-5" transform="translate(118.52 38.29)">FB10D</text><polygon class="cls-3" points="42.54 44.7 48.44 67.8 82.98 35.32 42.54 44.7"/><polygon class="cls-3" points="82.98 35.32 101.06 72.85 114.85 43.35 82.98 35.32"/><line class="cls-3" x1="48.44" y1="67.8" x2="114.85" y2="43.35"/><line class="cls-3" x1="42.54" y1="44.7" x2="97.34" y2="70.7"/><line class="cls-4" x1="32.23" y1="123.67" x2="32.23" y2="122.69"/><rect class="cls-4" x="49.99" y="151.16" width="32.6" height="16.3" rx="8.15" ry="8.15"/><text class="cls-5" transform="translate(54.47 161.05)">F9DCBB</text><rect class="cls-4" x="118.41" y="149.42" width="32.6" height="16.3" rx="8.15" ry="8.15"/><text class="cls-5" transform="translate(125.42 159.31)">FB10D</text><line class="cls-3" x1="123.4" y1="149.91" x2="136.34" y2="126.71"/><line class="cls-3" x1="83.29" y1="161.05" x2="118.82" y2="161.05"/><polygon class="cls-3" points="100.5 77.59 69.92 151.16 136.34 126.72 100.5 77.59"/><rect class="cls-4" x="133" y="118.74" width="32.6" height="16.3" rx="8.15" ry="8.15"/><text class="cls-5" transform="translate(140.01 128.63)">FB10D</text><rect class="cls-4" x="96.92" y="66.06" width="32.6" height="16.3" rx="8.15" ry="8.15"/><text class="cls-5" transform="translate(103.93 75.95)">FB10D</text><rect class="cls-4" x="11.57" y="100.6" width="34.81" height="9.27"/><text class="cls-6" transform="translate(13.75 103.42)">04 79BE667E F9DCBB<tspan x="15.52" y="0">A</tspan><tspan x="16.46" y="0">C 55A06295 CE870B</tspan><tspan x="0" y="1.67">07029B</tspan><tspan x="5.43" y="1.67">F</tspan><tspan x="6.29" y="1.67">CDB 2DCE28D9 59F2815B 16F8179</tspan><tspan x="0" y="3.35">483A</tspan><tspan x="3.61" y="3.35">D</tspan><tspan x="4.66" y="3.35">A77 26A3C465 5</tspan><tspan x="16.17" y="3.35">D</tspan><tspan x="17.21" y="3.35">A4FB</tspan><tspan x="20.95" y="3.35">F</tspan><tspan x="21.8" y="3.35">C 0E1108A8</tspan><tspan x="0" y="5.02">FD17B448 A6855419 9C47D08F FB10D4B8</tspan></text><rect class="cls-4" x="69.98" y="100.6" width="34.81" height="9.27"/><text class="cls-6" transform="translate(72.16 103.42)">04 79BE667E F9DCBB<tspan x="15.52" y="0">A</tspan><tspan x="16.46" y="0">C 55A06295 CE870B</tspan><tspan x="0" y="1.67">07029B</tspan><tspan x="5.43" y="1.67">F</tspan><tspan x="6.29" y="1.67">CDB 2DCE28D9 59F2815B 16F8179</tspan><tspan x="0" y="3.35">483A</tspan><tspan x="3.61" y="3.35">D</tspan><tspan x="4.66" y="3.35">A77 26A3C465 5</tspan><tspan x="16.17" y="3.35">D</tspan><tspan x="17.21" y="3.35">A4FB</tspan><tspan x="20.95" y="3.35">F</tspan><tspan x="21.8" y="3.35">C 0E1108A8</tspan><tspan x="0" y="5.02">FD17B448 A6855419 9C47D08F FB10D4B8</tspan></text><rect class="cls-4" x="128.03" y="100.6" width="34.81" height="9.27"/><text class="cls-6" transform="translate(130.2 103.42)">04 79BE667E F9DCBB<tspan x="15.52" y="0">A</tspan><tspan x="16.46" y="0">C 55A06295 CE870B</tspan><tspan x="0" y="1.67">07029B</tspan><tspan x="5.43" y="1.67">F</tspan><tspan x="6.29" y="1.67">CDB 2DCE28D9 59F2815B 16F8179</tspan><tspan x="0" y="3.35">483A</tspan><tspan x="3.61" y="3.35">D</tspan><tspan x="4.66" y="3.35">A77 26A3C465 5</tspan><tspan x="16.17" y="3.35">D</tspan><tspan x="17.21" y="3.35">A4FB</tspan><tspan x="20.95" y="3.35">F</tspan><tspan x="21.8" y="3.35">C 0E1108A8</tspan><tspan x="0" y="5.02">FD17B448 A6855419 9C47D08F FB10D4B8</tspan></text><rect class="cls-7" x="0.32" y="0.24" width="173.77" height="229.09"/><rect class="cls-7" x="0.32" y="228.85" width="173.77" height="229.09"/></svg>