<svg id="Background" xmlns="http://www.w3.org/2000/svg" xmlns:xlink="http://www.w3.org/1999/xlink" viewBox="0 0 1091.74 815.67"><defs><style>.cls-1,.cls-18,.cls-5{fill:#231f20;}.cls-2{fill:#2484c6;}.cls-3{fill:#fff;}.cls-4{fill:#e6e7e8;}.cls-5{font-size:12px;}.cls-10,.cls-13,.cls-15,.cls-17,.cls-18,.cls-5,.cls-9{font-family:Source Sans Pro;}.cls-10,.cls-13,.cls-15,.cls-17,.cls-19,.cls-21,.cls-5,.cls-9{font-weight:700;}.cls-11,.cls-6,.cls-7,.cls-8{fill:none;}.cls-7{stroke:#6d6e71;stroke-width:0.5px;}.cls-11,.cls-7,.cls-8{stroke-miterlimit:10;}.cls-8{stroke:#b72f26;}.cls-9{font-size:1.67px;}.cls-10,.cls-13,.cls-15,.cls-9{fill:#a0cc3a;}.cls-10,.cls-18{font-size:8px;}.cls-11{stroke:#6db680;stroke-width:2px;}.cls-12,.cls-17{fill:#6db680;}.cls-13{font-size:5.5px;}.cls-14{fill:url(#linear-gradient);}.cls-15{font-size:6.2px;}.cls-16{fill:url(#linear-gradient-2);}.cls-17{font-size:6px;}.cls-20{white-space:pre;}.cls-21,.cls-22{fill:#222c33;}</style><linearGradient id="linear-gradient" x1="414.46" y1="187.5" x2="533.22" y2="187.5" gradientUnits="userSpaceOnUse"><stop offset="0" stop-color="#231f20"/><stop offset="0.18" stop-color="#2b2829" stop-opacity="0.89"/><stop offset="0.36" stop-color="#454345" stop-opacity="0.55"/><stop offset="0.53" stop-color="#6d6e71" stop-opacity="0"/><stop offset="1"/></linearGradient><linearGradient id="linear-gradient-2" x1="29.06" y1="449.12" x2="147.82" y2="449.12" xlink:href="#linear-gradient"/><symbol id="Nouveau_symbole" data-name="Nouveau symbole" viewBox="0 0 25.45 6.34"><path class="cls-1" d="M2.56,6.34a2.53,2.53,0,0,1-1-.19A2.49,2.49,0,0,1,.2,4.77,2.83,2.83,0,0,1,0,3.67,2.78,2.78,0,0,1,.2,2.58,2.46,2.46,0,0,1,1.58,1.22a2.59,2.59,0,0,1,1-.19,2.57,2.57,0,0,1,1,.19A2.46,2.46,0,0,1,4.91,2.58a2.8,2.8,0,0,1,.2,1.09,2.85,2.85,0,0,1-.2,1.1,2.54,2.54,0,0,1-.56.84A2.54,2.54,0,0,1,2.56,6.34Zm0-.25a2.18,2.18,0,0,0,.87-0.18,2.25,2.25,0,0,0,.72-0.49,2.33,2.33,0,0,0,.5-0.76,2.58,2.58,0,0,0,.18-1,2.53,2.53,0,0,0-.18-1,2.33,2.33,0,0,0-.5-0.76,2.2,2.2,0,0,0-.72-0.49,2.3,2.3,0,0,0-1.74,0A2.2,2.2,0,0,0,1,1.93a2.33,2.33,0,0,0-.5.76,2.53,2.53,0,0,0-.18,1,2.58,2.58,0,0,0,.18,1,2.33,2.33,0,0,0,.5.76,2.25,2.25,0,0,0,.72.49A2.2,2.2,0,0,0,2.56,6.09Zm0-.84a1.35,1.35,0,0,1-.54-0.11,1.31,1.31,0,0,1-.44-0.31,1.5,1.5,0,0,1-.3-0.5A1.86,1.86,0,0,1,1.2,3.67,1.59,1.59,0,0,1,1.32,3a1.45,1.45,0,0,1,.32-0.47,1.37,1.37,0,0,1,.46-0.3,1.46,1.46,0,0,1,.55-0.1,1.11,1.11,0,0,1,.54.12,1.88,1.88,0,0,1,.42.32l-0.18.21a1.48,1.48,0,0,0-.36-0.26,1,1,0,0,0-.42-0.09,1,1,0,0,0-.78.33,1.23,1.23,0,0,0-.3.87,1.41,1.41,0,0,0,.29.94A1,1,0,0,0,2.62,5a1.1,1.1,0,0,0,.51-0.12,1.92,1.92,0,0,0,.41-0.28L3.7,4.78a2.64,2.64,0,0,1-.46.33A1.27,1.27,0,0,1,2.6,5.25Z"/><path class="cls-2" d="M23.31,0H21.19L20.12,1.4V2.86H17.06V1.4h1.84L20,0H15.35V2.86H13.81V0H11.2l-2,2.86H7.67l-1,1.4H8.28L7.08,6H9l1.14-1.74h2V6h1.72V4.26h1.54V6h1.71V4.26h3.05V6h1.72V4.26h1.28c1.5,0,2.34-.66,2.34-2.16A2,2,0,0,0,23.31,0ZM11.05,2.86l1-1.58V2.86h-1Zm12.25,0a2.17,2.17,0,0,1-.88.11H21.83V1.34h0.59a2.13,2.13,0,0,1,.88.11,0.68,0.68,0,0,1,.35.7A0.65,0.65,0,0,1,23.31,2.81Z"/></symbol></defs><title>bitcoin3</title><rect class="cls-3" x="352.55" y="335.36" width="555.61" height="480.31"/><rect id="top" class="cls-1" x="359.77" width="510.24" height="1.98"/><g id="AFP"><g id="AFP-2" data-name="AFP"><use id="Nouveau_symbole-3" data-name="Nouveau symbole" width="25.45" height="6.34" transform="translate(366.11 306.84)" xlink:href="#Nouveau_symbole"/></g></g><rect class="cls-4" x="380.38" y="124.19" width="92.77" height="34.23" rx="5.67" ry="5.67"/><rect class="cls-4" x="501.91" y="29.99" width="82.88" height="40.8" rx="5.67" ry="5.67"/><rect class="cls-4" x="607.76" y="17.49" width="89.51" height="31.83" rx="5.67" ry="5.67"/><rect class="cls-4" x="760.02" y="89.79" width="105.9" height="68.73" rx="5.81" ry="5.81"/><rect class="cls-4" x="779.57" y="187.92" width="85.88" height="49.14" rx="5.67" ry="5.67"/><rect class="cls-4" x="411.89" y="38.84" width="73.65" height="68.5" rx="5.67" ry="5.67"/><text class="cls-5" transform="translate(364.94 17.7)">Bi<tspan x="10.57" y="0">t</tspan><tspan x="14.95" y="0">c</tspan><tspan x="20.22" y="0">oin, i</tspan><tspan x="46.37" y="0">t</tspan><tspan x="50.84" y="0">s mine</tspan><tspan x="85.23" y="0">r</tspan><tspan x="89.91" y="0">s and the bloc</tspan><tspan x="162.73" y="0">k</tspan><tspan x="168.97" y="0">chain</tspan></text><rect class="cls-4" x="752.56" y="256.18" width="95.35" height="54.74" rx="5.67" ry="5.67"/><rect class="cls-4" x="417.43" y="230.86" width="113.07" height="42.88" rx="5.67" ry="5.67"/><rect class="cls-4" x="718.78" y="25.88" width="114.56" height="51.97" rx="5.67" ry="5.67"/><path class="cls-1" d="M379-204.2a5,5,0,0,0-.68,3c0.08,1.27-.34,1.78-0.08,3.56s0.93,3.05.51,4.66-0.08,3-.08,4.49a16.71,16.71,0,0,1-.17,3.65c-0.25,1.27.17,10-.17,11.53s-0.25,2.29-.68,2.71,0.08,1.44.08,2.54-0.34,2.54-.85,2.2-0.65.68-3.54,1.53-5.43.25-5.68-.42,1.46-1.79,2.3-2.89,1.06-2.1,1.74-3.12-0.59.42-.34-1.19-0.34-4.16,0-6.28,1.19-2.79.85-4.4,0.76-1.87-.08-3.05-0.42-2.8-.85-4.07-0.51-2.12-.76-2.63a11.32,11.32,0,0,1-.76-3.14c0.21-2.85-1.26,1-2.88,2.51s-1.12,1.52-1.55,3-0.09,2.14.17,3.75,0.71,2.16.71,4.28a28.59,28.59,0,0,0,.49,6.33,6.25,6.25,0,0,1,.17,3.48c-0.25.68-.25,3.05-0.51,4.32s-2.37,1-2.8.76-1.1,0-3.43.89-7.16-.27-7.69-0.36-0.32-.11-0.4-0.49-0.23-.81.7-1.21,2.39,0.12,3.68-.47a30.17,30.17,0,0,0,4.39-3.39c0.47-.38.59-0.53,0.13-0.51s-0.66.11-.55-1.65a34.25,34.25,0,0,0-1.39-9.59c-1.1-3.9-1.19-6.71-1.48-7.65s-0.11-3.22.47-3.77,1.27-3.56,2.23-5.53c1.27-2.63.24-2.82,0.21-3.14s0,0-.42-0.53a0.67,0.67,0,0,1-.21-0.68,1,1,0,0,1-.64-0.47,2.35,2.35,0,0,1,.25-1.19c0-.19-8.14-10.81-8.4-11.11a2.58,2.58,0,0,0-1.17-.36c-0.61-.21-0.06-0.55-0.38-0.61s-0.47.08-.47-0.25a1.07,1.07,0,0,0-.64-0.75,1.51,1.51,0,0,1-.3-0.85c-0.15-.17-0.83.17-0.91-0.47a1.13,1.13,0,0,1,.64-1.06c0.15-.11-6.55-8.44-7.72-9.88s-1.23-1.36-2-1.38-0.57-.11-2.37,1.23-4.85,4.9-6,5.72-0.66-1,1.57-3.56a57.09,57.09,0,0,1,5.66-5.49c0.23-.21-0.38-0.66-0.57-0.91s-0.68-.45.23-1.38a1.42,1.42,0,0,1,2.31,0c0.55,0.64.3,0.78,0.83,0.45a83,83,0,0,1,9.05-5.28c2.8-1.17,2.35,0,.72,1.31s-8,5.43-8,5.72a5.15,5.15,0,0,0,0,1.4c0.15,0.23,8,11,8,11l0.49-.13a2.65,2.65,0,0,1,2,.47c0.89,0.51.55,0.49,1.53,0.06s6.23-4.3,7.08-4.71a3,3,0,0,1,1.84-.4c0.78,0,.57-0.34,1.19-0.3s0.42-.4.93-0.42,0.38-.42.78-0.59a5.11,5.11,0,0,0,1-.59,8.08,8.08,0,0,0,1.7-1.8c0.34-.47.74-0.28,1.8-0.78a16.5,16.5,0,0,1,3.88-1.23,0.59,0.59,0,0,0,.66-0.66c0-.3.13-0.38-0.08-0.42a0.37,0.37,0,0,1-.34-0.49c0-.38.08-0.42-0.32-0.47s-0.17-.74,0-1.44a1,1,0,0,0-.17-1.23,1.59,1.59,0,0,1-.49-1c0-.32-2.86.3-2.76-0.72s2.06-1,2.27-1-0.49-1.42.81-3.39,3.9-2.48,6.44-2.31,3.52,3.26,3.6,3.92,0.23,1.14.3,1.78a2.31,2.31,0,0,0,.23,1.4c0.34,0.49-.45.78-0.74,0.66s-0.55.25-.57,0.83a2.06,2.06,0,0,1-.53,1.29,1.45,1.45,0,0,0-.21,1.21,10.88,10.88,0,0,1,.85,2c0.3,1.23-.68,1.44.21,2.5a17.92,17.92,0,0,1,2.37,5.09,7.74,7.74,0,0,1,.42,4.83c-0.3,1.27-1.23,1.23-1.1,2.3s-0.3.75-.59,1.77-0.93,1.61-1.36,2.93-0.85,1.7-.81,2.25,0.42,2.29,0,2.63a3.77,3.77,0,0,1-1.53.3,0.9,0.9,0,0,0-.85,1.06A5.82,5.82,0,0,1,379-204.2Zm-19.14-5.65c0.79,0.79.85,1.19,1.37,1.13s1.49,0.88,2.33,1.39,1.27-1.1,2.91-2.35,1.24-1.36,1.18-2.09a15.42,15.42,0,0,1,.34-2.71,7.79,7.79,0,0,1,1-2.71,1.55,1.55,0,0,0-.23-1.91,4,4,0,0,1,.28-3.06c0.57-.79.06-1.92,0-2.32s-1.36,1.13-2.26,1.13-0.68.79-1.75,0.79a2.39,2.39,0,0,0-2,.85c-0.79.62-1.19-.28-1.64,0a56.53,56.53,0,0,1-7.18,2.61c-1,.12-1.35,0-0.68.84C354.33-217.26,359.08-210.64,359.87-209.85Z" transform="translate(364.78 344.23)"/><path class="cls-6" d="M307-182.91" transform="translate(364.78 344.23)"/><polyline class="cls-7" points="636.55 152.92 574.19 154.86 597.12 247.81"/><line class="cls-8" x1="762.89" y1="187.45" x2="360.07" y2="187.45"/><rect class="cls-1" x="390.38" y="-170.53" width="34.81" height="9.27" transform="translate(543.85 554.5) rotate(-36.56)"/><text class="cls-9" transform="translate(759.27 185.97) rotate(-36.56)">04 79BE667E F9DCBB<tspan x="15.52" y="0">A</tspan><tspan x="16.46" y="0">C 55A06295 CE870B</tspan><tspan x="0" y="1.67">07029B</tspan><tspan x="5.43" y="1.67">F</tspan><tspan x="6.29" y="1.67">CDB 2DCE28D9 59F2815B 16F8179</tspan><tspan x="0" y="3.35">483A</tspan><tspan x="3.61" y="3.35">D</tspan><tspan x="4.66" y="3.35">A77 26A3C465 5</tspan><tspan x="16.17" y="3.35">D</tspan><tspan x="17.21" y="3.35">A4FB</tspan><tspan x="20.95" y="3.35">F</tspan><tspan x="21.8" y="3.35">C 0E1108A8</tspan><tspan x="0" y="5.02">FD17B448 A6855419 9C47D08F FB10D4B8</tspan></text><rect class="cls-1" x="520.8" y="93.7" width="42.04" height="21.02" rx="9.88" ry="9.88"/><rect class="cls-1" x="543.69" y="140.29" width="42.04" height="21.02" rx="9.88" ry="9.88"/><rect class="cls-1" x="589.89" y="77.38" width="42.04" height="21.02" rx="9.88" ry="9.88"/><rect class="cls-1" x="650.75" y="89.48" width="42.04" height="21.02" rx="9.88" ry="9.88"/><text class="cls-10" transform="translate(524.64 106.46)">0479BE66</text><text class="cls-10" transform="translate(549.47 153.05)">F9DCBB</text><text class="cls-10" transform="translate(600.64 90.77)">59F28</text><text class="cls-10" transform="translate(659.79 102.23)">FB10D</text><polygon class="cls-7" points="561.81 110.5 569.4 140.29 613.96 98.4 561.81 110.5"/><polygon class="cls-7" points="613.96 98.4 637.27 146.8 655.06 108.76 613.96 98.4"/><line class="cls-7" x1="569.4" y1="140.29" x2="655.06" y2="108.76"/><line class="cls-7" x1="561.81" y1="110.5" x2="632.47" y2="144.03"/><line class="cls-1" x1="548.51" y1="212.35" x2="548.51" y2="211.09"/><rect class="cls-1" x="571.41" y="247.81" width="42.04" height="21.02" rx="9.88" ry="9.88"/><text class="cls-10" transform="translate(577.18 260.56)">F9DCBB</text><rect class="cls-1" x="659.65" y="245.56" width="42.04" height="21.02" rx="9.88" ry="9.88"/><text class="cls-10" transform="translate(668.69 258.32)">FB10D</text><path class="cls-7" d="M232.34-96.42" transform="translate(364.78 344.23)"/><line class="cls-7" x1="666.09" y1="246.19" x2="682.77" y2="216.28"/><line class="cls-7" x1="614.36" y1="260.56" x2="660.18" y2="260.56"/><polygon class="cls-7" points="636.55 152.92 597.12 247.81 682.77 216.28 636.55 152.92"/><path class="cls-7" d="M295.41-92.68" transform="translate(364.78 344.23)"/><rect class="cls-1" x="678.46" y="205.99" width="42.04" height="21.02" rx="9.88" ry="9.88"/><text class="cls-10" transform="translate(687.51 218.75)">FB10D</text><path class="cls-11" d="M312.2-194.69c36.51-10.29,66.63,11.11,78.24,21.16" transform="translate(364.78 344.23)"/><polygon class="cls-12" points="760.36 175.53 750.3 171.75 754.79 170.38 755.82 165.79 760.36 175.53"/><rect class="cls-1" x="551.84" y="182.97" width="34.81" height="9.27"/><text class="cls-9" transform="translate(554.01 185.78)">04 79BE667E F9DCBB<tspan x="15.52" y="0">A</tspan><tspan x="16.46" y="0">C 55A06295 CE870B</tspan><tspan x="0" y="1.67">07029B</tspan><tspan x="5.43" y="1.67">F</tspan><tspan x="6.29" y="1.67">CDB 2DCE28D9 59F2815B 16F8179</tspan><tspan x="0" y="3.35">483A</tspan><tspan x="3.61" y="3.35">D</tspan><tspan x="4.66" y="3.35">A77 26A3C465 5</tspan><tspan x="16.17" y="3.35">D</tspan><tspan x="17.21" y="3.35">A4FB</tspan><tspan x="20.95" y="3.35">F</tspan><tspan x="21.8" y="3.35">C 0E1108A8</tspan><tspan x="0" y="5.02">FD17B448 A6855419 9C47D08F FB10D4B8</tspan></text><rect class="cls-1" x="593.11" y="182.97" width="34.81" height="9.27"/><text class="cls-9" transform="translate(595.28 185.78)">04 79BE667E F9DCBB<tspan x="15.52" y="0">A</tspan><tspan x="16.46" y="0">C 55A06295 CE870B</tspan><tspan x="0" y="1.67">07029B</tspan><tspan x="5.43" y="1.67">F</tspan><tspan x="6.29" y="1.67">CDB 2DCE28D9 59F2815B 16F8179</tspan><tspan x="0" y="3.35">483A</tspan><tspan x="3.61" y="3.35">D</tspan><tspan x="4.66" y="3.35">A77 26A3C465 5</tspan><tspan x="16.17" y="3.35">D</tspan><tspan x="17.21" y="3.35">A4FB</tspan><tspan x="20.95" y="3.35">F</tspan><tspan x="21.8" y="3.35">C 0E1108A8</tspan><tspan x="0" y="5.02">FD17B448 A6855419 9C47D08F FB10D4B8</tspan></text><rect class="cls-1" x="634.37" y="182.97" width="34.81" height="9.27"/><text class="cls-9" transform="translate(636.55 185.78)">04 79BE667E F9DCBB<tspan x="15.52" y="0">A</tspan><tspan x="16.46" y="0">C 55A06295 CE870B</tspan><tspan x="0" y="1.67">07029B</tspan><tspan x="5.43" y="1.67">F</tspan><tspan x="6.29" y="1.67">CDB 2DCE28D9 59F2815B 16F8179</tspan><tspan x="0" y="3.35">483A</tspan><tspan x="3.61" y="3.35">D</tspan><tspan x="4.66" y="3.35">A77 26A3C465 5</tspan><tspan x="16.17" y="3.35">D</tspan><tspan x="17.21" y="3.35">A4FB</tspan><tspan x="20.95" y="3.35">F</tspan><tspan x="21.8" y="3.35">C 0E1108A8</tspan><tspan x="0" y="5.02">FD17B448 A6855419 9C47D08F FB10D4B8</tspan></text><rect class="cls-1" x="675.64" y="182.97" width="34.81" height="9.27"/><text class="cls-9" transform="translate(677.82 185.78)">04 79BE667E F9DCBB<tspan x="15.52" y="0">A</tspan><tspan x="16.46" y="0">C 55A06295 CE870B</tspan><tspan x="0" y="1.67">07029B</tspan><tspan x="5.43" y="1.67">F</tspan><tspan x="6.29" y="1.67">CDB 2DCE28D9 59F2815B 16F8179</tspan><tspan x="0" y="3.35">483A</tspan><tspan x="3.61" y="3.35">D</tspan><tspan x="4.66" y="3.35">A77 26A3C465 5</tspan><tspan x="16.17" y="3.35">D</tspan><tspan x="17.21" y="3.35">A4FB</tspan><tspan x="20.95" y="3.35">F</tspan><tspan x="21.8" y="3.35">C 0E1108A8</tspan><tspan x="0" y="5.02">FD17B448 A6855419 9C47D08F FB10D4B8</tspan></text><rect class="cls-1" x="716.91" y="182.97" width="34.81" height="9.27"/><text class="cls-9" transform="translate(719.09 185.78)">04 79BE667E F9DCBB<tspan x="15.52" y="0">A</tspan><tspan x="16.46" y="0">C 55A06295 CE870B</tspan><tspan x="0" y="1.67">07029B</tspan><tspan x="5.43" y="1.67">F</tspan><tspan x="6.29" y="1.67">CDB 2DCE28D9 59F2815B 16F8179</tspan><tspan x="0" y="3.35">483A</tspan><tspan x="3.61" y="3.35">D</tspan><tspan x="4.66" y="3.35">A77 26A3C465 5</tspan><tspan x="16.17" y="3.35">D</tspan><tspan x="17.21" y="3.35">A4FB</tspan><tspan x="20.95" y="3.35">F</tspan><tspan x="21.8" y="3.35">C 0E1108A8</tspan><tspan x="0" y="5.02">FD17B448 A6855419 9C47D08F FB10D4B8</tspan></text><rect class="cls-1" x="414.46" y="170.64" width="118.75" height="33.72" rx="12" ry="12"/><rect class="cls-1" x="631.93" y="138.04" width="42.04" height="21.02" rx="9.88" ry="9.88"/><text class="cls-13" transform="translate(422.23 176.93)">04 79BE667E F9DCBB<tspan x="51.02" y="0">A</tspan><tspan x="54.11" y="0">C 55A06295 CE870B</tspan><tspan x="0" y="6">07029B</tspan><tspan x="17.85" y="6">F</tspan><tspan x="20.67" y="6">CDB 2DCE28D9 59F2815B 16F8179</tspan><tspan x="0" y="12">483A</tspan><tspan x="11.86" y="12">D</tspan><tspan x="15.3" y="12">A77 26A3C465 5</tspan><tspan x="53.14" y="12">D</tspan><tspan x="56.58" y="12">A4FB</tspan><tspan x="68.84" y="12">F</tspan><tspan x="71.67" y="12">C 0E1108A8</tspan><tspan x="0" y="18">FD17B448 A6855419 9C47D08F FB10D4B</tspan><tspan x="0" y="24">FD17B448 A6855419 9C47D08F FB10D4B8</tspan></text><rect class="cls-14" x="414.46" y="170.64" width="118.75" height="33.72" rx="12" ry="12"/><text class="cls-10" transform="translate(640.98 150.8)">FB10D</text><rect class="cls-1" x="369.11" y="182.97" width="34.81" height="9.27"/><text class="cls-9" transform="translate(371.28 185.78)">04 79BE667E F9DCBB<tspan x="15.52" y="0">A</tspan><tspan x="16.46" y="0">C 55A06295 CE870B</tspan><tspan x="0" y="1.67">07029B</tspan><tspan x="5.43" y="1.67">F</tspan><tspan x="6.29" y="1.67">CDB 2DCE28D9 59F2815B 16F8179</tspan><tspan x="0" y="3.35">483A</tspan><tspan x="3.61" y="3.35">D</tspan><tspan x="4.66" y="3.35">A77 26A3C465 5</tspan><tspan x="16.17" y="3.35">D</tspan><tspan x="17.21" y="3.35">A4FB</tspan><tspan x="20.95" y="3.35">F</tspan><tspan x="21.8" y="3.35">C 0E1108A8</tspan><tspan x="0" y="5.02">FD17B448 A6855419 9C47D08F FB10D4B8</tspan></text><polyline class="cls-7" points="1026.65 666.66 978.29 668.17 996.07 740.23"/><rect class="cls-1" x="974.14" y="539.03" width="32.6" height="16.3" rx="8.15" ry="8.15"/><rect class="cls-1" x="1021.33" y="548.41" width="32.6" height="16.3" rx="8.15" ry="8.15"/><text class="cls-15" transform="translate(982.48 549.41)">59F28</text><text class="cls-15" transform="translate(1028.34 558.3)">FB10D</text><polygon class="cls-7" points="992.8 555.33 1010.88 592.86 1024.67 563.36 992.8 555.33"/><line class="cls-1" x1="958.38" y1="712.74" x2="958.38" y2="711.76"/><rect class="cls-1" x="976.14" y="740.23" width="32.6" height="16.3" rx="8.15" ry="8.15"/><text class="cls-15" transform="translate(980.62 750.12)">F9DCBB</text><rect class="cls-1" x="1044.55" y="738.49" width="32.6" height="16.3" rx="8.15" ry="8.15"/><text class="cls-15" transform="translate(1051.57 748.38)">FB10D</text><path class="cls-7" d="M631.29,396" transform="translate(364.78 344.23)"/><line class="cls-7" x1="1049.55" y1="738.98" x2="1062.48" y2="715.78"/><line class="cls-7" x1="1009.44" y1="750.12" x2="1044.97" y2="750.12"/><polygon class="cls-7" points="1026.65 666.66 996.07 740.23 1062.48 715.78 1026.65 666.66"/><path class="cls-7" d="M680.19,398.9" transform="translate(364.78 344.23)"/><rect class="cls-1" x="1059.14" y="707.81" width="32.6" height="16.3" rx="8.15" ry="8.15"/><text class="cls-15" transform="translate(1066.16 717.7)">FB10D</text><rect class="cls-1" x="1022.83" y="525.78" width="34.81" height="9.27"/><text class="cls-9" transform="translate(1025.01 528.6)">04 79BE667E F9DCBB<tspan x="15.52" y="0">A</tspan><tspan x="16.46" y="0">C 55A06295 CE870B</tspan><tspan x="0" y="1.67">07029B</tspan><tspan x="5.43" y="1.67">F</tspan><tspan x="6.29" y="1.67">CDB 2DCE28D9 59F2815B 16F8179</tspan><tspan x="0" y="3.35">483A</tspan><tspan x="3.61" y="3.35">D</tspan><tspan x="4.66" y="3.35">A77 26A3C465 5</tspan><tspan x="16.17" y="3.35">D</tspan><tspan x="17.21" y="3.35">A4FB</tspan><tspan x="20.95" y="3.35">F</tspan><tspan x="21.8" y="3.35">C 0E1108A8</tspan><tspan x="0" y="5.02">FD17B448 A6855419 9C47D08F FB10D4B8</tspan></text><rect class="cls-1" x="966.54" y="496.92" width="34.81" height="9.27"/><text class="cls-9" transform="translate(968.71 499.74)">04 79BE667E F9DCBB<tspan x="15.52" y="0">A</tspan><tspan x="16.46" y="0">C 55A06295 CE870B</tspan><tspan x="0" y="1.67">07029B</tspan><tspan x="5.43" y="1.67">F</tspan><tspan x="6.29" y="1.67">CDB 2DCE28D9 59F2815B 16F8179</tspan><tspan x="0" y="3.35">483A</tspan><tspan x="3.61" y="3.35">D</tspan><tspan x="4.66" y="3.35">A77 26A3C465 5</tspan><tspan x="16.17" y="3.35">D</tspan><tspan x="17.21" y="3.35">A4FB</tspan><tspan x="20.95" y="3.35">F</tspan><tspan x="21.8" y="3.35">C 0E1108A8</tspan><tspan x="0" y="5.02">FD17B448 A6855419 9C47D08F FB10D4B8</tspan></text><rect class="cls-1" x="1038.06" y="496.92" width="34.81" height="9.27"/><text class="cls-9" transform="translate(1040.24 499.74)">04 79BE667E F9DCBB<tspan x="15.52" y="0">A</tspan><tspan x="16.46" y="0">C 55A06295 CE870B</tspan><tspan x="0" y="1.67">07029B</tspan><tspan x="5.43" y="1.67">F</tspan><tspan x="6.29" y="1.67">CDB 2DCE28D9 59F2815B 16F8179</tspan><tspan x="0" y="3.35">483A</tspan><tspan x="3.61" y="3.35">D</tspan><tspan x="4.66" y="3.35">A77 26A3C465 5</tspan><tspan x="16.17" y="3.35">D</tspan><tspan x="17.21" y="3.35">A4FB</tspan><tspan x="20.95" y="3.35">F</tspan><tspan x="21.8" y="3.35">C 0E1108A8</tspan><tspan x="0" y="5.02">FD17B448 A6855419 9C47D08F FB10D4B8</tspan></text><rect class="cls-1" x="895.62" y="444.59" width="34.81" height="9.27"/><text class="cls-9" transform="translate(897.8 447.41)">04 79BE667E F9DCBB<tspan x="15.52" y="0">A</tspan><tspan x="16.46" y="0">C 55A06295 CE870B</tspan><tspan x="0" y="1.67">07029B</tspan><tspan x="5.43" y="1.67">F</tspan><tspan x="6.29" y="1.67">CDB 2DCE28D9 59F2815B 16F8179</tspan><tspan x="0" y="3.35">483A</tspan><tspan x="3.61" y="3.35">D</tspan><tspan x="4.66" y="3.35">A77 26A3C465 5</tspan><tspan x="16.17" y="3.35">D</tspan><tspan x="17.21" y="3.35">A4FB</tspan><tspan x="20.95" y="3.35">F</tspan><tspan x="21.8" y="3.35">C 0E1108A8</tspan><tspan x="0" y="5.02">FD17B448 A6855419 9C47D08F FB10D4B8</tspan></text><rect class="cls-1" x="936.89" y="444.59" width="34.81" height="9.27"/><text class="cls-9" transform="translate(939.07 447.41)">04 79BE667E F9DCBB<tspan x="15.52" y="0">A</tspan><tspan x="16.46" y="0">C 55A06295 CE870B</tspan><tspan x="0" y="1.67">07029B</tspan><tspan x="5.43" y="1.67">F</tspan><tspan x="6.29" y="1.67">CDB 2DCE28D9 59F2815B 16F8179</tspan><tspan x="0" y="3.35">483A</tspan><tspan x="3.61" y="3.35">D</tspan><tspan x="4.66" y="3.35">A77 26A3C465 5</tspan><tspan x="16.17" y="3.35">D</tspan><tspan x="17.21" y="3.35">A4FB</tspan><tspan x="20.95" y="3.35">F</tspan><tspan x="21.8" y="3.35">C 0E1108A8</tspan><tspan x="0" y="5.02">FD17B448 A6855419 9C47D08F FB10D4B8</tspan></text><path class="cls-1" d="M144.31,352.85c0.52,1,0,1.9.45,2.79s0.24,1.77.67,2.57a5.42,5.42,0,0,1,.69,1.84,4.81,4.81,0,0,1,.41,1.64c0,0.89.78,7,.74,8.82a32,32,0,0,0,.43,5.15c0.15,0.84-.22.74-0.45,1.43s0.26,0.74-.15,1.36,0.13,0.67,0,1.38,0.35,0.8.19,1.3-0.58.22-.43,0.39a2.85,2.85,0,0,1,.28,2c-0.13,1.25-.06,4.78-0.06,5.77s0.43,1.36.11,1.9a2.57,2.57,0,0,1-1.69.71c-0.45.11-.32,0.8-0.54,1s-0.58.37-3.33,0.41a19.53,19.53,0,0,1-4.84-.37c-0.56-.15-0.22-0.26-0.22-1a3.08,3.08,0,0,1,1-2.31,10.32,10.32,0,0,0,2.29-3.83,5.44,5.44,0,0,0,.32-3.55,5.31,5.31,0,0,1,.65-2.66c0.13-.45-0.54-0.24-0.61-0.84s0.89-.45,1-0.78-0.5-.76-0.76-1.43,0.15-1.82.22-2.64a10.92,10.92,0,0,0-.61-3.5c-0.45-1.62-.58-4.07-0.87-5.43s-1-3.46-1.1-4.13-0.41-.54-0.69-1.34-0.71-.89-1-1.9-0.89-2.64-1.45-4.52a39.83,39.83,0,0,1-1.08-6.31c-0.11-1.25-.5-1.45-0.74-2.75a6,6,0,0,0-1.08-2.68,44.66,44.66,0,0,0-1.34,7c-0.28,2.42-.43,5.06-0.67,5.71s0.24,0.76-.17,1.34,0.28,0.39-.17,1.17,0.06,0.63-.17,1.08-0.09.54-.37,1,0.17,0.52,0,1.08a3.43,3.43,0,0,0,0,1.47,60.44,60.44,0,0,1-.3,6.27c-0.22,2.34-.89,5.45-0.82,6.25a15.56,15.56,0,0,1-.15,2.9c-0.13,1.08-.15,1.12-0.19,1.6a13.58,13.58,0,0,1-.5,1.84c-0.13.45-.48,0.54,0.11,1.17s0,0.39.22,1.19,0.3,2.51.45,3.27,0.41,2.12.52,2.51a0.77,0.77,0,0,1-.69.93c-0.61.19-2.72,0.48-3.65-.22s-2.42.48-2.64,0.93-1.49.67-4.2,0.74a9.12,9.12,0,0,1-4.5-1,0.64,0.64,0,0,1-.58-0.61,5,5,0,0,1,.48-1.49c0.32-.52.84-0.78,2.18-1s1.56-.71,2.6-1.47,2.1-3.37,2.53-4.09,0.24-.43.15-1.45a2.7,2.7,0,0,1,.28-1.88c0.26-.37.43-0.43,0.22-0.87a2.07,2.07,0,0,1,0-1.64c0.24-.48.91-0.22,0.71-0.61a9.58,9.58,0,0,1-.17-2.79c0-1.58-.06-5.82.06-7.66s-0.15-3.59,0-4.35a1.53,1.53,0,0,0,0-1.34,5.29,5.29,0,0,1-.32-1.84,13,13,0,0,1,.3-2.49c0.09-.8-0.67-1.34-0.78-2.44s-0.67-5.9-.63-7.91-0.22-4.63,0-6.83,0.09-3.91.15-4.67,0.19-1.9.17-2.16a1,1,0,0,0,0-1c-0.41-.41-0.3-0.65-0.48-1.88s0.63-3.72.69-4.69-0.39-1.69-.43-3.5,0-5.38,0-6,0-.5-0.67-0.15a3.32,3.32,0,0,1-1.73.48,2.76,2.76,0,0,1-2.38-1.06,18.53,18.53,0,0,1-2.21-3.72c-0.35-1-1.67-3.76-1.82-4.37a5.8,5.8,0,0,0-.22-1,15.94,15.94,0,0,1-.32-2,3.8,3.8,0,0,1-.3-1.77,2.63,2.63,0,0,0-.11-1.21,5.15,5.15,0,0,0-.19-1.6,16.83,16.83,0,0,1-.17-2.44c0-.3-7.4,0-7.72,0a0.61,0.61,0,0,1-.69-0.54,5.21,5.21,0,0,1,0-1.54,3.4,3.4,0,0,1,1.36-1.3c0.28,0,.41.39,1.36,0.74a14.14,14.14,0,0,0,4.28.22,4.49,4.49,0,0,1,1.47,0c0.37,0,.37,0,0.3-0.37a0.63,0.63,0,0,1,.58-0.67,5,5,0,0,1,1-.17,3.78,3.78,0,0,1,1.1-.32,3.74,3.74,0,0,0,1-.26c0.41-.11.32,0.17,0.63,0a2.16,2.16,0,0,1,1.21.06,2.18,2.18,0,0,1,.52.32c0.28,0.06.26,0.71,0.54,0.82s5.15-.58,7.09-0.91,2.64-.26,3-0.41,0.19-.39.15-0.67a4,4,0,0,0-1-1.19,3.72,3.72,0,0,1-.87-1.88,1.59,1.59,0,0,0-.54-1,5.59,5.59,0,0,1-.58-1.95c0-.3-0.11-0.58-0.28-0.54s-0.28,0-.71,0a0.49,0.49,0,0,1-.67-0.56c0-.5.37-1.08,0.39-1.64a2.67,2.67,0,0,1,.61-1.34c0.15-.19.11-1.95,0.3-3a8.15,8.15,0,0,1,1.79-3.4,3.54,3.54,0,0,1,1.67-.93,1.24,1.24,0,0,0,.82-0.56c0.13-.26.48-0.58,0.71-0.22s1.34-.39,3.7,1a6.7,6.7,0,0,1,3.18,4.41,8.06,8.06,0,0,0,.54,1.56,4.79,4.79,0,0,1,.65,1.54,1.09,1.09,0,0,0,.26.87,0.55,0.55,0,0,1,0,.74c-0.15.15-.28,0.32-0.39,0.09a0.71,0.71,0,0,0-.67-0.35c-0.39-.06-0.45,0-0.26.24a2,2,0,0,1,0,1.36,14.5,14.5,0,0,1-.25,1.9,0.71,0.71,0,0,1-.68.61c-0.28-.11-0.39,0-0.39.61s0.09,0.8.48,1a0.82,0.82,0,0,1,.59.74,5.43,5.43,0,0,0,.88,1.51c0.19,0.24,3.83-.22,4.37-0.22s1,0.09,1-.22-0.11-.78.11-0.8,0.13-.37-1-1.9a34.87,34.87,0,0,1-2.57-4,14.64,14.64,0,0,1,3.65-.91,16.33,16.33,0,0,1,4.22.13c0.41,0.15.45-.09,0.19,0.63a18.56,18.56,0,0,0-1,5.58,53.57,53.57,0,0,0,.26,5.71c0,0.32-.45.22-1,0.15s-0.39.06-.13,0.58a7.84,7.84,0,0,0,1,1.41,10.28,10.28,0,0,1,1,1.69,4.37,4.37,0,0,1,.71,1.95,5.11,5.11,0,0,0,.84,2,26.07,26.07,0,0,1,.78,2.6c0.35,1.08.45,0.82,0.82,1.92a3.69,3.69,0,0,1,.48,1.56c0.06,0.93,1,3,1.15,3.91a8.53,8.53,0,0,0,.61,2.05,4.37,4.37,0,0,1,.09,1.73c0.06,0.54.09,0.39,0.13,1s0.24,0.71-.24.8-0.52.65-.32,1.12-0.15.82-.24,1.75a6.48,6.48,0,0,0-.17,2,1.62,1.62,0,0,1-.45,1.38,5.31,5.31,0,0,1-.63,1.51c-0.39.41-.11,1.08-0.26,1.73a4.2,4.2,0,0,0-.45,1.3c-0.24,1.3-.43,2-0.61,2.79s-0.45,1.1-.15,1.71a2.5,2.5,0,0,1,0,1.64,2.74,2.74,0,0,0-.17,1.34c0.15,0.52-.41,1.56-0.19,1.9a1,1,0,0,1-.3,1.15,5.41,5.41,0,0,1-1.56,1.67c-0.61.35-.71,0-1-0.22s-0.22.35-.74,0.37-0.61.17-.56,1.25-0.24,1-.22,2.12a29.44,29.44,0,0,0-.13,3.76C143.79,347.94,143.79,351.88,144.31,352.85Zm1-36.07c0.09-1.69-.48-1.43-1-2.94s-1.51-4.11-2.29-5.75,0.74,2.08,1.47,3.94a22.42,22.42,0,0,1,1.17,5.06c0.3,1.77,0,7,.22,5.71C145,321.19,145.17,318.47,145.26,316.78ZM115.74,301a5.16,5.16,0,0,0,1.28,1.71c0.43,0.43.19,0.82,0.48,1.38s0.28-.71.56-1.25a3.68,3.68,0,0,0,.61-1.15c0.11-.54-0.17-0.54.23-1a2.93,2.93,0,0,0,.35-1.17,2.29,2.29,0,0,0,.61-1.12,14.09,14.09,0,0,0,.26-2.49,2.75,2.75,0,0,1,1.21-2,16.42,16.42,0,0,1,2-1.19c0.61-.24-0.65,0-1.67.19s-3.68.37-4.2,0.61a1.23,1.23,0,0,0-.93,1,2.29,2.29,0,0,1-.91,1.21,1.19,1.19,0,0,0-.65.78c0,0.37-.13.67-0.39,0.67s-0.24.26-.17,0.54,0.37,0.75.67,1.58A18.51,18.51,0,0,0,115.74,301Z" transform="translate(364.78 344.23)"/><path class="cls-6" d="M128.12,83.85" transform="translate(364.78 344.23)"/><line class="cls-8" x1="634.92" y1="449.07" x2="36" y2="449.07"/><line class="cls-8" x1="437.75" y1="677.67" y2="677.67"/><rect class="cls-1" x="63.52" y="319.6" width="34.81" height="9.27" transform="translate(187.56 456.24) rotate(-36.56)"/><text class="cls-9" transform="translate(432.42 676.09) rotate(-36.56)">04 79BE667E F9DCBB<tspan x="15.52" y="0">A</tspan><tspan x="16.46" y="0">C 55A06295 CE870B</tspan><tspan x="0" y="1.67">07029B</tspan><tspan x="5.43" y="1.67">F</tspan><tspan x="6.29" y="1.67">CDB 2DCE28D9 59F2815B 16F8179</tspan><tspan x="0" y="3.35">483A</tspan><tspan x="3.61" y="3.35">D</tspan><tspan x="4.66" y="3.35">A77 26A3C465 5</tspan><tspan x="16.17" y="3.35">D</tspan><tspan x="17.21" y="3.35">A4FB</tspan><tspan x="20.95" y="3.35">F</tspan><tspan x="21.8" y="3.35">C 0E1108A8</tspan><tspan x="0" y="5.02">FD17B448 A6855419 9C47D08F FB10D4B8</tspan></text><polyline class="cls-7" points="465.59 421.57 417.23 423.08 435.01 495.14"/><rect class="cls-1" x="375.83" y="375.65" width="32.6" height="16.3" rx="8.15" ry="8.15"/><rect class="cls-1" x="393.59" y="411.78" width="32.6" height="16.3" rx="8.15" ry="8.15"/><rect class="cls-1" x="429.41" y="363" width="32.6" height="16.3" rx="8.15" ry="8.15"/><rect class="cls-1" x="476.6" y="372.38" width="32.6" height="16.3" rx="8.15" ry="8.15"/><text class="cls-15" transform="translate(378.81 385.55)">0479BE66</text><text class="cls-15" transform="translate(398.07 421.67)">F9DCBB</text><text class="cls-15" transform="translate(437.75 373.38)">59F28</text><text class="cls-15" transform="translate(483.61 382.27)">FB10D</text><polygon class="cls-7" points="407.63 388.68 413.52 411.78 448.07 379.3 407.63 388.68"/><polygon class="cls-7" points="448.07 379.3 466.15 416.83 479.94 387.33 448.07 379.3"/><line class="cls-7" x1="413.52" y1="411.78" x2="479.94" y2="387.33"/><line class="cls-7" x1="407.63" y1="388.68" x2="462.42" y2="414.68"/><line class="cls-1" x1="397.32" y1="467.66" x2="397.32" y2="466.68"/><rect class="cls-1" x="415.08" y="495.14" width="32.6" height="16.3" rx="8.15" ry="8.15"/><text class="cls-15" transform="translate(419.55 505.04)">F9DCBB</text><rect class="cls-1" x="483.49" y="493.4" width="32.6" height="16.3" rx="8.15" ry="8.15"/><text class="cls-15" transform="translate(490.51 503.29)">FB10D</text><path class="cls-7" d="M70.23,150.92" transform="translate(364.78 344.23)"/><line class="cls-7" x1="488.49" y1="493.89" x2="501.42" y2="470.7"/><line class="cls-7" x1="448.38" y1="505.04" x2="483.91" y2="505.04"/><polygon class="cls-7" points="465.59 421.57 435.01 495.14 501.43 470.7 465.59 421.57"/><path class="cls-7" d="M119.13,153.82" transform="translate(364.78 344.23)"/><rect class="cls-1" x="498.08" y="462.72" width="32.6" height="16.3" rx="8.15" ry="8.15"/><text class="cls-15" transform="translate(505.1 472.61)">FB10D</text><rect class="cls-1" x="326.79" y="606.86" width="32.6" height="16.3" rx="8.15" ry="8.15"/><rect class="cls-1" x="344.54" y="642.99" width="32.6" height="16.3" rx="8.15" ry="8.15"/><text class="cls-15" transform="translate(329.76 616.75)">0479BE66</text><text class="cls-15" transform="translate(349.02 652.88)">F9DCBB</text><line class="cls-7" x1="358.59" y1="619.89" x2="364.48" y2="642.99"/><line class="cls-7" x1="358.59" y1="619.89" x2="364.48" y2="622.68"/><path class="cls-11" d="M-17.21,260.89C19.3,250.6,49.42,272,61,282.05" transform="translate(364.78 344.23)"/><polygon class="cls-12" points="430.95 631.11 420.89 627.34 425.38 625.96 426.41 621.37 430.95 631.11"/><rect class="cls-1" x="77.08" y="673.04" width="34.81" height="9.27"/><text class="cls-9" transform="translate(79.26 675.86)">04 79BE667E F9DCBB<tspan x="15.52" y="0">A</tspan><tspan x="16.46" y="0">C 55A06295 CE870B</tspan><tspan x="0" y="1.67">07029B</tspan><tspan x="5.43" y="1.67">F</tspan><tspan x="6.29" y="1.67">CDB 2DCE28D9 59F2815B 16F8179</tspan><tspan x="0" y="3.35">483A</tspan><tspan x="3.61" y="3.35">D</tspan><tspan x="4.66" y="3.35">A77 26A3C465 5</tspan><tspan x="16.17" y="3.35">D</tspan><tspan x="17.21" y="3.35">A4FB</tspan><tspan x="20.95" y="3.35">F</tspan><tspan x="21.8" y="3.35">C 0E1108A8</tspan><tspan x="0" y="5.02">FD17B448 A6855419 9C47D08F FB10D4B8</tspan></text><rect class="cls-1" x="130.41" y="673.04" width="34.81" height="9.27"/><text class="cls-9" transform="translate(132.59 675.86)">04 79BE667E F9DCBB<tspan x="15.52" y="0">A</tspan><tspan x="16.46" y="0">C 55A06295 CE870B</tspan><tspan x="0" y="1.67">07029B</tspan><tspan x="5.43" y="1.67">F</tspan><tspan x="6.29" y="1.67">CDB 2DCE28D9 59F2815B 16F8179</tspan><tspan x="0" y="3.35">483A</tspan><tspan x="3.61" y="3.35">D</tspan><tspan x="4.66" y="3.35">A77 26A3C465 5</tspan><tspan x="16.17" y="3.35">D</tspan><tspan x="17.21" y="3.35">A4FB</tspan><tspan x="20.95" y="3.35">F</tspan><tspan x="21.8" y="3.35">C 0E1108A8</tspan><tspan x="0" y="5.02">FD17B448 A6855419 9C47D08F FB10D4B8</tspan></text><rect class="cls-1" x="222.12" y="673.04" width="34.81" height="9.27"/><text class="cls-9" transform="translate(224.3 675.86)">04 79BE667E F9DCBB<tspan x="15.52" y="0">A</tspan><tspan x="16.46" y="0">C 55A06295 CE870B</tspan><tspan x="0" y="1.67">07029B</tspan><tspan x="5.43" y="1.67">F</tspan><tspan x="6.29" y="1.67">CDB 2DCE28D9 59F2815B 16F8179</tspan><tspan x="0" y="3.35">483A</tspan><tspan x="3.61" y="3.35">D</tspan><tspan x="4.66" y="3.35">A77 26A3C465 5</tspan><tspan x="16.17" y="3.35">D</tspan><tspan x="17.21" y="3.35">A4FB</tspan><tspan x="20.95" y="3.35">F</tspan><tspan x="21.8" y="3.35">C 0E1108A8</tspan><tspan x="0" y="5.02">FD17B448 A6855419 9C47D08F FB10D4B8</tspan></text><rect class="cls-1" x="274.96" y="673.04" width="34.81" height="9.27"/><text class="cls-9" transform="translate(277.14 675.86)">04 79BE667E F9DCBB<tspan x="15.52" y="0">A</tspan><tspan x="16.46" y="0">C 55A06295 CE870B</tspan><tspan x="0" y="1.67">07029B</tspan><tspan x="5.43" y="1.67">F</tspan><tspan x="6.29" y="1.67">CDB 2DCE28D9 59F2815B 16F8179</tspan><tspan x="0" y="3.35">483A</tspan><tspan x="3.61" y="3.35">D</tspan><tspan x="4.66" y="3.35">A77 26A3C465 5</tspan><tspan x="16.17" y="3.35">D</tspan><tspan x="17.21" y="3.35">A4FB</tspan><tspan x="20.95" y="3.35">F</tspan><tspan x="21.8" y="3.35">C 0E1108A8</tspan><tspan x="0" y="5.02">FD17B448 A6855419 9C47D08F FB10D4B8</tspan></text><rect class="cls-1" x="374.73" y="673.04" width="34.81" height="9.27"/><text class="cls-9" transform="translate(376.9 675.86)">04 79BE667E F9DCBB<tspan x="15.52" y="0">A</tspan><tspan x="16.46" y="0">C 55A06295 CE870B</tspan><tspan x="0" y="1.67">07029B</tspan><tspan x="5.43" y="1.67">F</tspan><tspan x="6.29" y="1.67">CDB 2DCE28D9 59F2815B 16F8179</tspan><tspan x="0" y="3.35">483A</tspan><tspan x="3.61" y="3.35">D</tspan><tspan x="4.66" y="3.35">A77 26A3C465 5</tspan><tspan x="16.17" y="3.35">D</tspan><tspan x="17.21" y="3.35">A4FB</tspan><tspan x="20.95" y="3.35">F</tspan><tspan x="21.8" y="3.35">C 0E1108A8</tspan><tspan x="0" y="5.02">FD17B448 A6855419 9C47D08F FB10D4B8</tspan></text><rect class="cls-1" x="29.06" y="432.26" width="118.75" height="33.72" rx="12" ry="12"/><rect class="cls-1" x="462.01" y="410.04" width="32.6" height="16.3" rx="8.15" ry="8.15"/><text class="cls-13" transform="translate(36.83 438.55)">04 79BE667E F9DCBB<tspan x="51.02" y="0">A</tspan><tspan x="54.11" y="0">C 55A06295 CE870B</tspan><tspan x="0" y="6">07029B</tspan><tspan x="17.85" y="6">F</tspan><tspan x="20.67" y="6">CDB 2DCE28D9 59F2815B 16F8179</tspan><tspan x="0" y="12">483A</tspan><tspan x="11.86" y="12">D</tspan><tspan x="15.3" y="12">A77 26A3C465 5</tspan><tspan x="53.14" y="12">D</tspan><tspan x="56.58" y="12">A4FB</tspan><tspan x="68.84" y="12">F</tspan><tspan x="71.67" y="12">C 0E1108A8</tspan><tspan x="0" y="18">FD17B448 A6855419 9C47D08F FB10D4B</tspan><tspan x="0" y="24">FD17B448 A6855419 9C47D08F FB10D4B8</tspan></text><rect class="cls-16" x="29.06" y="432.26" width="118.75" height="33.72" rx="12" ry="12"/><text class="cls-15" transform="translate(469.02 419.93)">FB10D</text><polyline class="cls-7" points="189.02 652.97 140.67 654.47 158.45 726.54"/><rect class="cls-1" x="99.27" y="607.05" width="32.6" height="16.3" rx="8.15" ry="8.15"/><rect class="cls-1" x="117.02" y="643.17" width="32.6" height="16.3" rx="8.15" ry="8.15"/><rect class="cls-1" x="152.84" y="594.39" width="32.6" height="16.3" rx="8.15" ry="8.15"/><rect class="cls-1" x="200.03" y="603.77" width="32.6" height="16.3" rx="8.15" ry="8.15"/><text class="cls-15" transform="translate(102.25 616.94)">0479BE66</text><text class="cls-15" transform="translate(121.5 653.07)">F9DCBB</text><text class="cls-15" transform="translate(161.18 604.78)">59F28</text><text class="cls-15" transform="translate(207.05 613.67)">FB10D</text><polygon class="cls-7" points="131.07 620.07 136.96 643.17 171.5 610.69 131.07 620.07"/><polygon class="cls-7" points="171.5 610.69 189.58 648.22 203.37 618.73 171.5 610.69"/><line class="cls-7" x1="136.96" y1="643.17" x2="203.37" y2="618.73"/><line class="cls-7" x1="131.07" y1="620.07" x2="185.86" y2="646.07"/><line class="cls-1" x1="120.76" y1="699.05" x2="120.76" y2="698.07"/><rect class="cls-1" x="138.51" y="726.54" width="32.6" height="16.3" rx="8.15" ry="8.15"/><text class="cls-15" transform="translate(142.99 736.43)">F9DCBB</text><rect class="cls-1" x="206.93" y="724.79" width="32.6" height="16.3" rx="8.15" ry="8.15"/><text class="cls-15" transform="translate(213.94 734.69)">FB10D</text><path class="cls-7" d="M-206.33,382.31" transform="translate(364.78 344.23)"/><line class="cls-7" x1="211.93" y1="725.28" x2="224.86" y2="702.09"/><line class="cls-7" x1="171.82" y1="736.43" x2="207.35" y2="736.43"/><polygon class="cls-7" points="189.02 652.97 158.45 726.54 224.86 702.09 189.02 652.97"/><path class="cls-7" d="M-157.43,385.21" transform="translate(364.78 344.23)"/><rect class="cls-1" x="221.52" y="694.12" width="32.6" height="16.3" rx="8.15" ry="8.15"/><text class="cls-15" transform="translate(228.53 704.01)">FB10D</text><rect class="cls-1" x="172.72" y="643.17" width="32.6" height="16.3" rx="8.15" ry="8.15"/><text class="cls-15" transform="translate(179.86 653.07)">FB10D</text><rect class="cls-1" x="199.15" y="444.59" width="34.81" height="9.27"/><text class="cls-9" transform="translate(201.32 447.41)">04 79BE667E F9DCBB<tspan x="15.52" y="0">A</tspan><tspan x="16.46" y="0">C 55A06295 CE870B</tspan><tspan x="0" y="1.67">07029B</tspan><tspan x="5.43" y="1.67">F</tspan><tspan x="6.29" y="1.67">CDB 2DCE28D9 59F2815B 16F8179</tspan><tspan x="0" y="3.35">483A</tspan><tspan x="3.61" y="3.35">D</tspan><tspan x="4.66" y="3.35">A77 26A3C465 5</tspan><tspan x="16.17" y="3.35">D</tspan><tspan x="17.21" y="3.35">A4FB</tspan><tspan x="20.95" y="3.35">F</tspan><tspan x="21.8" y="3.35">C 0E1108A8</tspan><tspan x="0" y="5.02">FD17B448 A6855419 9C47D08F FB10D4B8</tspan></text><rect class="cls-1" x="257.55" y="444.59" width="34.81" height="9.27"/><text class="cls-9" transform="translate(259.73 447.41)">04 79BE667E F9DCBB<tspan x="15.52" y="0">A</tspan><tspan x="16.46" y="0">C 55A06295 CE870B</tspan><tspan x="0" y="1.67">07029B</tspan><tspan x="5.43" y="1.67">F</tspan><tspan x="6.29" y="1.67">CDB 2DCE28D9 59F2815B 16F8179</tspan><tspan x="0" y="3.35">483A</tspan><tspan x="3.61" y="3.35">D</tspan><tspan x="4.66" y="3.35">A77 26A3C465 5</tspan><tspan x="16.17" y="3.35">D</tspan><tspan x="17.21" y="3.35">A4FB</tspan><tspan x="20.95" y="3.35">F</tspan><tspan x="21.8" y="3.35">C 0E1108A8</tspan><tspan x="0" y="5.02">FD17B448 A6855419 9C47D08F FB10D4B8</tspan></text><rect class="cls-1" x="315.6" y="444.59" width="34.81" height="9.27"/><text class="cls-9" transform="translate(317.78 447.41)">04 79BE667E F9DCBB<tspan x="15.52" y="0">A</tspan><tspan x="16.46" y="0">C 55A06295 CE870B</tspan><tspan x="0" y="1.67">07029B</tspan><tspan x="5.43" y="1.67">F</tspan><tspan x="6.29" y="1.67">CDB 2DCE28D9 59F2815B 16F8179</tspan><tspan x="0" y="3.35">483A</tspan><tspan x="3.61" y="3.35">D</tspan><tspan x="4.66" y="3.35">A77 26A3C465 5</tspan><tspan x="16.17" y="3.35">D</tspan><tspan x="17.21" y="3.35">A4FB</tspan><tspan x="20.95" y="3.35">F</tspan><tspan x="21.8" y="3.35">C 0E1108A8</tspan><tspan x="0" y="5.02">FD17B448 A6855419 9C47D08F FB10D4B8</tspan></text><rect class="cls-1" x="376.66" y="444.59" width="34.81" height="9.27"/><text class="cls-9" transform="translate(378.84 447.41)">04 79BE667E F9DCBB<tspan x="15.52" y="0">A</tspan><tspan x="16.46" y="0">C 55A06295 CE870B</tspan><tspan x="0" y="1.67">07029B</tspan><tspan x="5.43" y="1.67">F</tspan><tspan x="6.29" y="1.67">CDB 2DCE28D9 59F2815B 16F8179</tspan><tspan x="0" y="3.35">483A</tspan><tspan x="3.61" y="3.35">D</tspan><tspan x="4.66" y="3.35">A77 26A3C465 5</tspan><tspan x="16.17" y="3.35">D</tspan><tspan x="17.21" y="3.35">A4FB</tspan><tspan x="20.95" y="3.35">F</tspan><tspan x="21.8" y="3.35">C 0E1108A8</tspan><tspan x="0" y="5.02">FD17B448 A6855419 9C47D08F FB10D4B8</tspan></text><rect class="cls-1" x="435.07" y="444.59" width="34.81" height="9.27"/><text class="cls-9" transform="translate(437.24 447.41)">04 79BE667E F9DCBB<tspan x="15.52" y="0">A</tspan><tspan x="16.46" y="0">C 55A06295 CE870B</tspan><tspan x="0" y="1.67">07029B</tspan><tspan x="5.43" y="1.67">F</tspan><tspan x="6.29" y="1.67">CDB 2DCE28D9 59F2815B 16F8179</tspan><tspan x="0" y="3.35">483A</tspan><tspan x="3.61" y="3.35">D</tspan><tspan x="4.66" y="3.35">A77 26A3C465 5</tspan><tspan x="16.17" y="3.35">D</tspan><tspan x="17.21" y="3.35">A4FB</tspan><tspan x="20.95" y="3.35">F</tspan><tspan x="21.8" y="3.35">C 0E1108A8</tspan><tspan x="0" y="5.02">FD17B448 A6855419 9C47D08F FB10D4B8</tspan></text><rect class="cls-1" x="493.12" y="444.59" width="34.81" height="9.27"/><text class="cls-9" transform="translate(495.29 447.41)">04 79BE667E F9DCBB<tspan x="15.52" y="0">A</tspan><tspan x="16.46" y="0">C 55A06295 CE870B</tspan><tspan x="0" y="1.67">07029B</tspan><tspan x="5.43" y="1.67">F</tspan><tspan x="6.29" y="1.67">CDB 2DCE28D9 59F2815B 16F8179</tspan><tspan x="0" y="3.35">483A</tspan><tspan x="3.61" y="3.35">D</tspan><tspan x="4.66" y="3.35">A77 26A3C465 5</tspan><tspan x="16.17" y="3.35">D</tspan><tspan x="17.21" y="3.35">A4FB</tspan><tspan x="20.95" y="3.35">F</tspan><tspan x="21.8" y="3.35">C 0E1108A8</tspan><tspan x="0" y="5.02">FD17B448 A6855419 9C47D08F FB10D4B8</tspan></text><path class="cls-1" d="M-333.46,334.7a0.9,0.9,0,0,0-.85-1.06,3.77,3.77,0,0,1-1.53-.3c-0.42-.34,0-2.08,0-2.63s-0.38-.93-0.81-2.25-1.06-1.91-1.36-2.93-0.72-.7-0.59-1.77-0.81-1-1.1-2.3a7.74,7.74,0,0,1,.42-4.83,17.92,17.92,0,0,1,2.37-5.09c0.89-1.06-.08-1.27.21-2.5a10.88,10.88,0,0,1,.85-2,1.45,1.45,0,0,0-.21-1.21,2.06,2.06,0,0,1-.53-1.29c0-.57-0.28-1-0.57-0.83s-1.08-.17-0.74-0.66a2.31,2.31,0,0,0,.23-1.4c0.06-.64.21-1.12,0.3-1.78s1.06-3.75,3.6-3.92,5.15,0.34,6.44,2.31,0.59,3.37.81,3.39,2.16,0,2.27,1-2.71.4-2.76,0.72a1.59,1.59,0,0,1-.49,1,1,1,0,0,0-.17,1.23c0.19,0.7.42,1.4,0,1.44s-0.34.08-.32,0.47a0.37,0.37,0,0,1-.34.49c-0.21,0-.08.13-0.08,0.42a0.59,0.59,0,0,0,.66.66,16.5,16.5,0,0,1,3.88,1.23c1.06,0.51,1.46.32,1.8,0.78a8.08,8.08,0,0,0,1.7,1.8,5.11,5.11,0,0,0,1,.59c0.4,0.17.28,0.57,0.78,0.59s0.32,0.47.93,0.42,0.4,0.32,1.19.3a3,3,0,0,1,1.84.4c0.85,0.4,6.11,4.28,7.08,4.71s0.64,0.45,1.53-.06a2.65,2.65,0,0,1,2-.47l0.49,0.13s7.82-10.73,8-11a5.15,5.15,0,0,0,0-1.4c0-.3-6.38-4.41-8-5.72s-2.08-2.48.72-1.31a83,83,0,0,1,9.05,5.28c0.53,0.34.28,0.19,0.83-.45a1.42,1.42,0,0,1,2.31,0c0.91,0.93.42,1.12,0.23,1.38s-0.81.7-.57,0.91a57.09,57.09,0,0,1,5.66,5.49c2.23,2.61,2.69,4.39,1.57,3.56s-4.18-4.39-6-5.72-1.63-1.25-2.37-1.23-0.81-.06-2,1.38-7.87,9.77-7.72,9.88a1.13,1.13,0,0,1,.64,1.06c-0.08.64-.76,0.3-0.91,0.47a1.51,1.51,0,0,1-.3.85,1.07,1.07,0,0,0-.64.75c0,0.33-.15.18-0.47,0.25s0.23,0.4-.38.61A2.58,2.58,0,0,0-305,325c-0.25.3-8.4,10.92-8.4,11.11a2.35,2.35,0,0,1,.25,1.19,1,1,0,0,1-.64.47,0.67,0.67,0,0,1-.21.68c-0.42.53-.4,0.21-0.42,0.53s-1.06.51,0.21,3.14c1,2,1.65,5,2.23,5.53s0.76,2.84.47,3.77-0.38,3.75-1.48,7.65a34.25,34.25,0,0,0-1.39,9.59c0.11,1.76-.08,1.67-0.55,1.65s-0.34.13,0.13,0.51a30.17,30.17,0,0,0,4.39,3.39c1.29,0.59,2.75.07,3.68,0.47s0.78,0.83.7,1.21,0.13,0.4-.4.49-5.36,1.2-7.69.36-3-1.14-3.43-.89-2.54.51-2.8-.76-0.25-3.65-.51-4.32a6.25,6.25,0,0,1,.17-3.48,28.59,28.59,0,0,0,.49-6.33c0-2.12.45-2.67,0.71-4.28s0.59-2.22.17-3.75,0.07-1.52-1.55-3-3.08-5.36-2.88-2.51a11.32,11.32,0,0,1-.76,3.14c-0.25.51-.34,1.36-0.76,2.63s0,2.88-.85,4.07,0.25,1.44-.08,3.05,0.51,2.28.85,4.4-0.25,4.67,0,6.28-1,.17-0.34,1.19,0.89,2,1.74,3.12,2.56,2.22,2.3,2.89-2.8,1.27-5.68.42-3-1.87-3.54-1.53-0.85-1.1-.85-2.2,0.51-2.12.08-2.54-0.34-1.19-.68-2.71,0.08-10.26-.17-11.53a16.71,16.71,0,0,1-.17-3.65c0-1.53.34-2.88-.08-4.49s0.25-2.88.51-4.66-0.17-2.29-.08-3.56a5,5,0,0,0-.68-3A5.82,5.82,0,0,1-333.46,334.7Zm25.93-10.09c0.67-.86.34-0.72-0.68-0.84a56.53,56.53,0,0,1-7.18-2.61c-0.45-.28-0.85.62-1.64,0a2.39,2.39,0,0,0-2-.85c-1.07,0-.85-0.79-1.75-0.79S-323,318-323,318.39s-0.57,1.53,0,2.32a4,4,0,0,1,.28,3.06,1.55,1.55,0,0,0-.23,1.91,7.79,7.79,0,0,1,1,2.71,15.42,15.42,0,0,1,.34,2.71c-0.06.73-.46,0.85,1.18,2.09s2.06,2.85,2.91,2.35,1.81-1.44,2.33-1.39,0.58-.34,1.37-1.13S-308.32,325.62-307.53,324.61Z" transform="translate(364.78 344.23)"/><path class="cls-1" d="M-91.43,283.5a5,5,0,0,0-.68,3c0.08,1.27-.34,1.78-0.08,3.56s0.93,3.05.51,4.66-0.08,3-.08,4.49a16.71,16.71,0,0,1-.17,3.65c-0.25,1.27.17,10-.17,11.53s-0.25,2.29-.68,2.71,0.08,1.44.08,2.54-0.34,2.54-.85,2.2-0.65.68-3.54,1.53-5.43.25-5.68-.42,1.46-1.79,2.3-2.89,1.06-2.1,1.74-3.12-0.59.42-.34-1.19-0.34-4.16,0-6.28,1.19-2.79.85-4.4,0.76-1.87-.08-3.05-0.42-2.8-.85-4.07-0.51-2.12-.76-2.63a11.32,11.32,0,0,1-.76-3.14c0.21-2.85-1.26,1-2.88,2.51s-1.12,1.52-1.55,3-0.09,2.14.17,3.75,0.71,2.16.71,4.28a28.59,28.59,0,0,0,.49,6.33,6.25,6.25,0,0,1,.17,3.48c-0.25.68-.25,3.05-0.51,4.32s-2.37,1-2.8.76-1.1,0-3.43.89-7.16-.27-7.69-0.36-0.32-.11-0.4-0.49-0.23-.81.7-1.21,2.39,0.12,3.68-.47a30.17,30.17,0,0,0,4.39-3.39c0.47-.38.59-0.53,0.13-0.51s-0.66.11-.55-1.65a34.25,34.25,0,0,0-1.39-9.59c-1.1-3.9-1.19-6.71-1.48-7.65s-0.11-3.22.47-3.77,1.27-3.56,2.23-5.53c1.27-2.63.24-2.82,0.21-3.14s0,0-.42-0.53a0.67,0.67,0,0,1-.21-0.68,1,1,0,0,1-.64-0.47,2.35,2.35,0,0,1,.25-1.19c0-.19-8.14-10.81-8.4-11.11a2.58,2.58,0,0,0-1.17-.36c-0.61-.21-0.06-0.55-0.38-0.61s-0.47.08-.47-0.25a1.07,1.07,0,0,0-.64-0.75,1.51,1.51,0,0,1-.3-0.85c-0.15-.17-0.83.17-0.91-0.47a1.13,1.13,0,0,1,.64-1.06c0.15-.11-6.55-8.44-7.72-9.88s-1.23-1.36-2-1.38-0.57-.11-2.37,1.23-4.85,4.9-6,5.72-0.66-1,1.57-3.56a57.09,57.09,0,0,1,5.66-5.49c0.23-.21-0.38-0.66-0.57-0.91s-0.68-.45.23-1.38a1.42,1.42,0,0,1,2.31,0c0.55,0.64.3,0.78,0.83,0.45a83,83,0,0,1,9.05-5.28c2.8-1.17,2.35,0,.72,1.31s-8,5.43-8,5.72a5.15,5.15,0,0,0,0,1.4c0.15,0.23,8,11,8,11l0.49-.13a2.65,2.65,0,0,1,2,.47c0.89,0.51.55,0.49,1.53,0.06s6.23-4.3,7.08-4.71a3,3,0,0,1,1.84-.4c0.78,0,.57-0.34,1.19-0.3s0.42-.4.93-0.42,0.38-.42.78-0.59a5.11,5.11,0,0,0,1-.59,8.08,8.08,0,0,0,1.7-1.8c0.34-.47.74-0.28,1.8-0.78a16.5,16.5,0,0,1,3.88-1.23,0.59,0.59,0,0,0,.66-0.66c0-.3.13-0.38-0.08-0.42a0.37,0.37,0,0,1-.34-0.49c0-.38.08-0.42-0.32-0.47s-0.17-.74,0-1.44a1,1,0,0,0-.17-1.23,1.59,1.59,0,0,1-.49-1c0-.32-2.86.3-2.76-0.72s2.06-1,2.27-1-0.49-1.42.81-3.39,3.9-2.48,6.44-2.31,3.52,3.26,3.6,3.92,0.23,1.14.3,1.78a2.31,2.31,0,0,0,.23,1.4c0.34,0.49-.45.78-0.74,0.66s-0.55.25-.57,0.83a2.06,2.06,0,0,1-.53,1.29,1.45,1.45,0,0,0-.21,1.21,10.88,10.88,0,0,1,.85,2c0.3,1.23-.68,1.44.21,2.5a17.92,17.92,0,0,1,2.37,5.09,7.74,7.74,0,0,1,.42,4.83c-0.3,1.27-1.23,1.23-1.1,2.3s-0.3.75-.59,1.77-0.93,1.61-1.36,2.93-0.85,1.7-.81,2.25,0.42,2.29,0,2.63a3.77,3.77,0,0,1-1.53.3,0.9,0.9,0,0,0-.85,1.06A5.82,5.82,0,0,1-91.43,283.5Zm-19.14-5.65c0.79,0.79.85,1.19,1.37,1.13s1.49,0.88,2.33,1.39,1.27-1.1,2.91-2.35,1.24-1.36,1.18-2.09a15.42,15.42,0,0,1,.34-2.71,7.79,7.79,0,0,1,1-2.71,1.55,1.55,0,0,0-.23-1.91,4,4,0,0,1,.28-3.06c0.57-.79.06-1.92,0-2.32s-1.36,1.13-2.26,1.13-0.68.79-1.75,0.79a2.39,2.39,0,0,0-2,.85c-0.79.62-1.19-.28-1.64,0a56.53,56.53,0,0,1-7.18,2.61c-1,.12-1.35,0-0.68.84C-116.11,270.44-111.36,277.06-110.57,277.85Z" transform="translate(364.78 344.23)"/><path class="cls-1" d="M-71.1,278.53a0.9,0.9,0,0,0-.85-1.06,3.77,3.77,0,0,1-1.53-.3c-0.42-.34,0-2.08,0-2.63s-0.38-.93-0.81-2.25-1.06-1.91-1.36-2.93-0.72-.7-0.59-1.77-0.81-1-1.1-2.3a7.74,7.74,0,0,1,.42-4.83,17.92,17.92,0,0,1,2.37-5.09c0.89-1.06-.08-1.27.21-2.5a10.88,10.88,0,0,1,.85-2,1.45,1.45,0,0,0-.21-1.21,2.06,2.06,0,0,1-.53-1.29c0-.57-0.28-1-0.57-0.83s-1.08-.17-0.74-0.66a2.31,2.31,0,0,0,.23-1.4c0.06-.64.21-1.12,0.3-1.78s1.06-3.75,3.6-3.92,5.15,0.34,6.44,2.31,0.59,3.37.81,3.39,2.16,0,2.27,1-2.71.4-2.76,0.72a1.59,1.59,0,0,1-.49,1,1,1,0,0,0-.17,1.23c0.19,0.7.42,1.4,0,1.44s-0.34.08-.32,0.47a0.37,0.37,0,0,1-.34.49c-0.21,0-.08.13-0.08,0.42a0.59,0.59,0,0,0,.66.66,16.5,16.5,0,0,1,3.88,1.23c1.06,0.51,1.46.32,1.8,0.78a8.08,8.08,0,0,0,1.7,1.8,5.11,5.11,0,0,0,1,.59c0.4,0.17.28,0.57,0.78,0.59s0.32,0.47.93,0.42,0.4,0.32,1.19.3a3,3,0,0,1,1.84.4c0.85,0.4,6.11,4.28,7.08,4.71s0.64,0.45,1.53-.06a2.65,2.65,0,0,1,2-.47l0.49,0.13s7.82-10.73,8-11a5.15,5.15,0,0,0,0-1.4c0-.3-6.38-4.41-8-5.72s-2.08-2.48.72-1.31a83,83,0,0,1,9.05,5.28c0.53,0.34.28,0.19,0.83-.45a1.42,1.42,0,0,1,2.31,0c0.91,0.93.42,1.12,0.23,1.38s-0.81.7-.57,0.91A57.09,57.09,0,0,1-23,256.61c2.23,2.61,2.69,4.39,1.57,3.56s-4.18-4.39-6-5.72-1.63-1.25-2.37-1.23-0.81-.06-2,1.38-7.87,9.77-7.72,9.88a1.13,1.13,0,0,1,.64,1.06c-0.08.64-.76,0.3-0.91,0.47a1.51,1.51,0,0,1-.3.85,1.07,1.07,0,0,0-.64.75c0,0.33-.15.18-0.47,0.25s0.23,0.4-.38.61a2.58,2.58,0,0,0-1.17.36c-0.25.3-8.4,10.92-8.4,11.11a2.35,2.35,0,0,1,.25,1.19,1,1,0,0,1-.64.47,0.67,0.67,0,0,1-.21.68c-0.42.53-.4,0.21-0.42,0.53s-1.06.51,0.21,3.14c1,2,1.65,5,2.23,5.53s0.76,2.84.47,3.77-0.38,3.75-1.48,7.65A34.25,34.25,0,0,0-52,312.48c0.11,1.76-.08,1.67-0.55,1.65s-0.34.13,0.13,0.51A30.17,30.17,0,0,0-48.06,318c1.29,0.59,2.75.07,3.68,0.47s0.78,0.83.7,1.21,0.13,0.4-.4.49-5.36,1.2-7.69.36-3-1.14-3.43-.89-2.54.51-2.8-.76-0.25-3.65-.51-4.32a6.25,6.25,0,0,1,.17-3.48,28.59,28.59,0,0,0,.49-6.33c0-2.12.45-2.67,0.71-4.28s0.59-2.22.17-3.75,0.07-1.52-1.55-3-3.08-5.36-2.88-2.51a11.32,11.32,0,0,1-.76,3.14c-0.25.51-.34,1.36-0.76,2.63s0,2.88-.85,4.07,0.25,1.44-.08,3.05,0.51,2.28.85,4.4-0.25,4.67,0,6.28-1,.17-0.34,1.19,0.89,2,1.74,3.12,2.56,2.22,2.3,2.89-2.8,1.27-5.68.42-3-1.87-3.54-1.53-0.85-1.1-.85-2.2,0.51-2.12.08-2.54-0.34-1.19-.68-2.71,0.08-10.26-.17-11.53a16.71,16.71,0,0,1-.17-3.65c0-1.53.34-2.88-.08-4.49s0.25-2.88.51-4.66-0.17-2.29-.08-3.56a5,5,0,0,0-.68-3A5.82,5.82,0,0,1-71.1,278.53Zm25.93-10.09c0.67-.86.34-0.72-0.68-0.84A56.53,56.53,0,0,1-53,265c-0.45-.28-0.85.62-1.64,0a2.39,2.39,0,0,0-2-.85c-1.07,0-.85-0.79-1.75-0.79s-2.2-1.53-2.26-1.13-0.57,1.53,0,2.32a4,4,0,0,1,.28,3.06,1.55,1.55,0,0,0-.23,1.91,7.79,7.79,0,0,1,1,2.71,15.42,15.42,0,0,1,.34,2.71c-0.06.73-.46,0.85,1.18,2.09s2.06,2.85,2.91,2.35,1.81-1.44,2.33-1.39,0.58-.34,1.37-1.13S-46,269.46-45.17,268.44Z" transform="translate(364.78 344.23)"/><text class="cls-17" transform="translate(472.37 744.67)">5<tspan x="3.17" y="0">D</tspan><tspan x="6.92" y="0">A4FB</tspan><tspan x="20.3" y="0">F</tspan><tspan x="23.38" y="0">C 0E1108A8</tspan></text><g id="Title"><text class="cls-18" transform="translate(445.71 756.53)">Mine<tspan x="16.13" y="0">r</tspan><tspan x="18.87" y="0">s a</tspan><tspan x="27.86" y="0">r</tspan><tspan x="30.55" y="0">e </tspan><tspan x="36.12" y="0">r</tspan><tspan x="38.82" y="0">e</tspan><tspan x="42.82" y="0">w</tspan><tspan x="48.49" y="0">a</tspan><tspan x="52.52" y="0">r</tspan><tspan x="55.21" y="0">ded</tspan><tspan x="0" y="9">f</tspan><tspan x="2.26" y="9">or their </tspan><tspan x="28.34" y="9">w</tspan><tspan x="34.05" y="9">ork with </tspan><tspan class="cls-19" x="63.09" y="9">n</tspan><tspan class="cls-19" x="67.66" y="9">e</tspan><tspan class="cls-19" x="71.76" y="9">w </tspan><tspan class="cls-19" x="0" y="18">bi</tspan><tspan class="cls-19" x="6.79" y="18">t</tspan><tspan class="cls-19" x="9.71" y="18">c</tspan><tspan class="cls-19" x="13.22" y="18">oins</tspan><tspan class="cls-20" x="27.99" y="18"> au</tspan><tspan x="37.98" y="18">t</tspan><tspan x="40.57" y="18">om</tspan><tspan x="51.54" y="18">a</tspan><tspan x="55.46" y="18">ti</tspan><tspan x="60.13" y="18">c</tspan><tspan x="63.7" y="18">ally</tspan><tspan x="0" y="27">g</tspan><tspan x="3.92" y="27">ene</tspan><tspan x="16.23" y="27">r</tspan><tspan x="18.82" y="27">at</tspan><tspan x="25.33" y="27">ed </tspan><tspan x="35.34" y="27">b</tspan><tspan x="39.73" y="27">y the bi</tspan><tspan x="64.08" y="27">t</tspan><tspan x="66.67" y="27">c</tspan><tspan x="70.15" y="27">oin</tspan><tspan x="0" y="36">al</tspan><tspan x="6.07" y="36">g</tspan><tspan x="9.99" y="36">orithm</tspan></text></g><g id="Title-2" data-name="Title"><text class="cls-18" transform="translate(372.56 707.81)">The <tspan class="cls-21" x="14.21" y="0">bloc</tspan><tspan class="cls-21" x="29.26" y="0">k</tspan><tspan class="cls-21" x="33.42" y="0">chain</tspan><tspan class="cls-22" x="52.72" y="0"> </tspan><tspan x="54.32" y="0">f</tspan><tspan x="56.58" y="0">orms</tspan><tspan x="0" y="9">a permanen</tspan><tspan x="40.2" y="9">t</tspan><tspan x="42.96" y="9">, publicly</tspan><tspan x="0" y="18">a</tspan><tspan x="4.03" y="18">v</tspan><tspan x="7.61" y="18">ailable, hi</tspan><tspan x="40.02" y="18">s</tspan><tspan x="43.22" y="18">t</tspan><tspan x="45.81" y="18">o</tspan><tspan x="50.14" y="18">r</tspan><tspan x="53.12" y="18">y of</tspan><tspan class="cls-19"><tspan x="0" y="27">e</tspan><tspan x="4.1" y="27">v</tspan><tspan x="8.22" y="27">e</tspan><tspan x="12.36" y="27">r</tspan><tspan x="15.6" y="27">y bi</tspan><tspan x="28.16" y="27">t</tspan><tspan x="31.08" y="27">c</tspan><tspan x="34.59" y="27">oin </tspan><tspan x="0" y="36">t</tspan><tspan x="3.06" y="36">r</tspan><tspan x="6.02" y="36">ansa</tspan><tspan x="22.58" y="36">c</tspan><tspan x="26.23" y="36">tion</tspan></tspan></text></g><g id="Title-3" data-name="Title"><text class="cls-18" transform="translate(24.87 732.41)">Fi<tspan x="5.92" y="0">r</tspan><tspan x="8.66" y="0">s</tspan><tspan x="11.86" y="0">t</tspan><tspan x="14.62" y="0">, th</tspan><tspan x="25.26" y="0">e</tspan><tspan x="29.27" y="0">y </tspan><tspan x="34.61" y="0">c</tspan><tspan x="38.14" y="0">onfirm the</tspan><tspan x="0" y="9">v</tspan><tspan x="4.19" y="9">alidity </tspan><tspan x="29.25" y="9">o</tspan><tspan x="33.68" y="9">f n</tspan><tspan x="42.82" y="9">e</tspan><tspan x="46.94" y="9">w bi</tspan><tspan x="61.87" y="9">t</tspan><tspan x="64.91" y="9">c</tspan><tspan x="68.45" y="9">oin</tspan><tspan x="0" y="18">t</tspan><tspan x="3.2" y="18">r</tspan><tspan x="6.3" y="18">ansa</tspan><tspan x="23.15" y="18">c</tspan><tspan x="26.85" y="18">tions </tspan><tspan x="46.7" y="18">th</tspan><tspan x="53.76" y="18">a</tspan><tspan x="57.68" y="18">t a</tspan><tspan x="66.02" y="18">r</tspan><tspan x="68.71" y="18">e </tspan><tspan x="74.28" y="18">w</tspan><tspan x="79.94" y="18">aiting </tspan><tspan x="0" y="27">t</tspan><tspan x="2.59" y="27">o be </tspan><tspan x="18.52" y="27">r</tspan><tspan x="21.22" y="27">e</tspan><tspan x="25.18" y="27">c</tspan><tspan x="28.66" y="27">o</tspan><tspan x="33" y="27">r</tspan><tspan x="35.7" y="27">ded on the</tspan><tspan x="0" y="36">public led</tspan><tspan x="35.2" y="36">g</tspan><tspan x="39.41" y="36">er</tspan></text></g><g id="Title-4" data-name="Title"><text class="cls-18" transform="translate(263.63 707.81)">Se<tspan x="8.24" y="0">c</tspan><tspan x="11.72" y="0">ond, the mine</tspan><tspan x="58.03" y="0">r</tspan><tspan x="60.77" y="0">s mu</tspan><tspan x="76.71" y="0">s</tspan><tspan x="79.9" y="0">t</tspan><tspan x="0" y="9">de</tspan><tspan x="8.41" y="9">c</tspan><tspan x="11.89" y="9">ode an enc</tspan><tspan x="48.23" y="9">r</tspan><tspan x="51.21" y="9">y</tspan><tspan x="54.94" y="9">p</tspan><tspan x="59.25" y="9">t</tspan><tspan x="61.84" y="9">ed,</tspan><tspan x="0" y="18">unique ID</tspan><tspan x="34.32" y="18">, </tspan><tspan x="37.91" y="18">g</tspan><tspan x="41.83" y="18">ene</tspan><tspan x="54.14" y="18">r</tspan><tspan x="56.73" y="18">at</tspan><tspan x="63.24" y="18">ed</tspan><tspan x="0" y="27">b</tspan><tspan x="4.39" y="27">y the bi</tspan><tspan x="28.74" y="27">t</tspan><tspan x="31.34" y="27">c</tspan><tspan x="34.82" y="27">oin </tspan><tspan x="47.1" y="27">f</tspan><tspan x="49.35" y="27">ormula,</tspan><tspan x="0" y="36">t</tspan><tspan x="2.59" y="36">o add the </tspan><tspan x="35.66" y="36">c</tspan><tspan x="39.14" y="36">onfirmed</tspan><tspan x="0" y="45">r</tspan><tspan x="2.7" y="45">e</tspan><tspan x="6.66" y="45">c</tspan><tspan x="10.14" y="45">o</tspan><tspan x="14.48" y="45">r</tspan><tspan x="17.18" y="45">ds </tspan><tspan x="26.57" y="45">t</tspan><tspan x="29.16" y="45">o a </tspan><tspan x="40.73" y="45">public led</tspan><tspan x="75.93" y="45">g</tspan><tspan x="80.13" y="45">er</tspan><tspan x="0" y="54">kn</tspan><tspan x="8.34" y="54">o</tspan><tspan x="12.64" y="54">wn as the </tspan><tspan x="49.38" y="54">bloc</tspan><tspan x="64.66" y="54">k</tspan><tspan x="68.94" y="54">chain</tspan><tspan x="88.62" y="54"> </tspan></text></g><g id="Title-5" data-name="Title"><text class="cls-18" transform="translate(29.07 594.39)">Mine<tspan x="16.13" y="0">r</tspan><tspan x="18.87" y="0">s use </tspan><tspan class="cls-19"><tspan x="0" y="9">open sou</tspan><tspan x="31.87" y="9">r</tspan><tspan x="34.98" y="9">c</tspan><tspan x="38.49" y="9">e s</tspan><tspan x="47.78" y="9">o</tspan><tspan x="52.18" y="9">ft</tspan><tspan x="57.97" y="9">w</tspan><tspan x="64.1" y="9">a</tspan><tspan x="68.31" y="9">r</tspan><tspan x="71.42" y="9">e </tspan></tspan><tspan x="0" y="18">t</tspan><tspan x="2.59" y="18">o do t</tspan><tspan x="21.61" y="18">w</tspan><tspan x="27.32" y="18">o jobs</tspan></text></g><rect class="cls-6" x="16.84" y="344.23" width="173.77" height="229.09"/><rect class="cls-6" x="191.08" y="344.23" width="173.77" height="229.09"/><rect class="cls-6" x="365.41" y="344.23" width="173.77" height="229.09"/><rect class="cls-6" x="16.84" y="572.83" width="173.77" height="229.09"/><rect class="cls-6" x="191.08" y="572.83" width="173.77" height="229.09"/><rect class="cls-6" x="365.41" y="572.83" width="173.77" height="229.09"/><text class="cls-18" transform="translate(34.44 384.22)"><tspan class="cls-19">Bi</tspan><tspan class="cls-19" x="7.05" y="0">t</tspan><tspan class="cls-19" x="9.97" y="0">c</tspan><tspan class="cls-19" x="13.48" y="0">oins </tspan><tspan x="29.85" y="0">a</tspan><tspan x="33.88" y="0">r</tspan><tspan x="36.58" y="0">e </tspan><tspan x="42.14" y="0">g</tspan><tspan x="46.06" y="0">ene</tspan><tspan x="58.38" y="0">r</tspan><tspan x="60.96" y="0">at</tspan><tspan x="67.47" y="0">ed</tspan><tspan x="0" y="9">b</tspan><tspan x="4.39" y="9">y a m</tspan><tspan x="21.99" y="9">a</tspan><tspan x="25.91" y="9">them</tspan><tspan x="43.57" y="9">a</tspan><tspan x="47.49" y="9">ti</tspan><tspan x="52.16" y="9">c</tspan><tspan x="55.73" y="9">al</tspan><tspan x="0" y="18">f</tspan><tspan x="2.26" y="18">ormula, or al</tspan><tspan x="44.8" y="18">g</tspan><tspan x="48.72" y="18">orithm</tspan></text><g id="Title-6" data-name="Title"><text class="cls-18" transform="translate(199.15 489.02)">The bi<tspan x="20.6" y="0">t</tspan><tspan x="23.19" y="0">c</tspan><tspan x="26.67" y="0">oin </tspan><tspan x="38.95" y="0">f</tspan><tspan x="41.21" y="0">ormula s</tspan><tspan x="70.33" y="0">et</tspan><tspan x="76.84" y="0">s a</tspan><tspan x="0" y="9">limit of </tspan><tspan class="cls-19" x="25.18" y="9">21 million</tspan><tspan x="60.09" y="9"> </tspan><tspan x="61.69" y="9">c</tspan><tspan x="65.17" y="9">oins. This </tspan><tspan x="0" y="18">limit is </tspan><tspan x="23.83" y="18">e</tspan><tspan x="27.74" y="18">xpe</tspan><tspan x="39.72" y="18">c</tspan><tspan x="43.29" y="18">t</tspan><tspan x="45.88" y="18">ed </tspan><tspan x="55.89" y="18">t</tspan><tspan x="58.48" y="18">o be </tspan><tspan x="74.41" y="18">r</tspan><tspan x="77.1" y="18">e</tspan><tspan x="80.96" y="18">ached</tspan><tspan x="0" y="27">a</tspan><tspan x="4.03" y="27">r</tspan><tspan x="6.73" y="27">ound the </tspan><tspan x="38.46" y="27">y</tspan><tspan x="42.16" y="27">e</tspan><tspan x="46.02" y="27">ar </tspan><tspan class="cls-19" x="54.42" y="27">2140</tspan><tspan class="cls-20" x="71.32" y="27">  </tspan></text></g><g id="Title-7" data-name="Title"><text class="cls-18" transform="translate(199.15 380.97)">S<tspan x="4.08" y="0">t</tspan><tspan x="6.62" y="0">arting with 50 </tspan><tspan x="54.02" y="0">c</tspan><tspan x="57.5" y="0">oins in </tspan><tspan x="0" y="9">January 2009 </tspan><tspan x="50.18" y="9">the </tspan><tspan x="62.8" y="9">f</tspan><tspan x="65.05" y="9">ormula </tspan><tspan x="0" y="18">p</tspan><tspan x="4.44" y="18">r</tspan><tspan x="7.14" y="18">odu</tspan><tspan x="20.26" y="18">c</tspan><tspan x="23.74" y="18">es </tspan><tspan x="32.66" y="18">bat</tspan><tspan x="43.49" y="18">ches of n</tspan><tspan x="73.05" y="18">e</tspan><tspan x="77.06" y="18">w </tspan><tspan x="84.41" y="18">c</tspan><tspan x="87.89" y="18">oins </tspan><tspan x="103.52" y="18">e</tspan><tspan x="107.53" y="18">v</tspan><tspan x="111.23" y="18">e</tspan><tspan x="115.2" y="18">r</tspan><tspan x="118.17" y="18">y</tspan><tspan x="0" y="27">10 minu</tspan><tspan x="26.88" y="27">t</tspan><tspan x="29.47" y="27">es</tspan></text></g></svg>