<svg id="Background" xmlns="http://www.w3.org/2000/svg" viewBox="0 0 173.77 229.09"><defs><style>.cls-1{fill:#fff;}.cls-2,.cls-5{fill:none;}.cls-2{stroke:#b72f26;stroke-miterlimit:10;}.cls-3{fill:#231f20;}.cls-4{font-size:1.67px;fill:#a0cc3a;font-family:Source Sans Pro;font-weight:700;}</style></defs><title>bitcoin2</title><rect class="cls-1" x="-12.22" y="-8.86" width="555.61" height="480.31"/><line class="cls-2" x1="444.62" y1="104.84" x2="-154.31" y2="104.84"/><rect class="cls-3" x="8.84" y="100.36" width="34.81" height="9.27"/><text class="cls-4" transform="translate(11.02 103.18)">04 79BE667E F9DCBB<tspan x="15.52" y="0">A</tspan><tspan x="16.46" y="0">C 55A06295 CE870B</tspan><tspan x="0" y="1.67">07029B</tspan><tspan x="5.43" y="1.67">F</tspan><tspan x="6.29" y="1.67">CDB 2DCE28D9 59F2815B 16F8179</tspan><tspan x="0" y="3.35">483A</tspan><tspan x="3.61" y="3.35">D</tspan><tspan x="4.66" y="3.35">A77 26A3C465 5</tspan><tspan x="16.17" y="3.35">D</tspan><tspan x="17.21" y="3.35">A4FB</tspan><tspan x="20.95" y="3.35">F</tspan><tspan x="21.8" y="3.35">C 0E1108A8</tspan><tspan x="0" y="5.02">FD17B448 A6855419 9C47D08F FB10D4B8</tspan></text><rect class="cls-3" x="67.25" y="100.36" width="34.81" height="9.27"/><text class="cls-4" transform="translate(69.42 103.18)">04 79BE667E F9DCBB<tspan x="15.52" y="0">A</tspan><tspan x="16.46" y="0">C 55A06295 CE870B</tspan><tspan x="0" y="1.67">07029B</tspan><tspan x="5.43" y="1.67">F</tspan><tspan x="6.29" y="1.67">CDB 2DCE28D9 59F2815B 16F8179</tspan><tspan x="0" y="3.35">483A</tspan><tspan x="3.61" y="3.35">D</tspan><tspan x="4.66" y="3.35">A77 26A3C465 5</tspan><tspan x="16.17" y="3.35">D</tspan><tspan x="17.21" y="3.35">A4FB</tspan><tspan x="20.95" y="3.35">F</tspan><tspan x="21.8" y="3.35">C 0E1108A8</tspan><tspan x="0" y="5.02">FD17B448 A6855419 9C47D08F FB10D4B8</tspan></text><rect class="cls-3" x="125.29" y="100.36" width="34.81" height="9.27"/><text class="cls-4" transform="translate(127.47 103.18)">04 79BE667E F9DCBB<tspan x="15.52" y="0">A</tspan><tspan x="16.46" y="0">C 55A06295 CE870B</tspan><tspan x="0" y="1.67">07029B</tspan><tspan x="5.43" y="1.67">F</tspan><tspan x="6.29" y="1.67">CDB 2DCE28D9 59F2815B 16F8179</tspan><tspan x="0" y="3.35">483A</tspan><tspan x="3.61" y="3.35">D</tspan><tspan x="4.66" y="3.35">A77 26A3C465 5</tspan><tspan x="16.17" y="3.35">D</tspan><tspan x="17.21" y="3.35">A4FB</tspan><tspan x="20.95" y="3.35">F</tspan><tspan x="21.8" y="3.35">C 0E1108A8</tspan><tspan x="0" y="5.02">FD17B448 A6855419 9C47D08F FB10D4B8</tspan></text><rect class="cls-5" x="-173.47" width="173.77" height="229.09"/><rect class="cls-5" x="0.77" width="173.77" height="229.09"/><rect class="cls-5" x="-173.47" y="228.6" width="173.77" height="229.09"/><rect class="cls-5" x="0.77" y="228.6" width="173.77" height="229.09"/></svg>