<svg id="Background" xmlns="http://www.w3.org/2000/svg" viewBox="0 0 173.77 229.09"><defs><style>.cls-1{fill:#fff;}.cls-2{fill:#231f20;}.cls-3,.cls-6,.cls-9{fill:none;}.cls-3{stroke:#b72f26;}.cls-3,.cls-6{stroke-miterlimit:10;}.cls-4{font-size:1.67px;}.cls-4,.cls-5{fill:#a0cc3a;}.cls-4,.cls-5,.cls-8{font-family:Source Sans Pro;font-weight:700;}.cls-5{font-size:6.2px;}.cls-6{stroke:#6db680;stroke-width:2px;}.cls-7,.cls-8{fill:#6db680;}.cls-8{font-size:6px;}</style></defs><title>bitcoin6</title><rect class="cls-1" x="-12.22" y="-8.86" width="555.61" height="480.31"/><path class="cls-2" d="M144,124c0.52,1,0,1.9.45,2.79s0.24,1.77.67,2.57a5.42,5.42,0,0,1,.69,1.84,4.81,4.81,0,0,1,.41,1.64c0,0.89.78,7,.74,8.82a32,32,0,0,0,.43,5.15c0.15,0.84-.22.74-0.45,1.43s0.26,0.74-.15,1.36,0.13,0.67,0,1.38,0.35,0.8.19,1.3-0.58.22-.43,0.39a2.85,2.85,0,0,1,.28,2c-0.13,1.25-.06,4.78-0.06,5.77s0.43,1.36.11,1.9a2.57,2.57,0,0,1-1.69.71c-0.45.11-.32,0.8-0.54,1s-0.58.37-3.33,0.41a19.53,19.53,0,0,1-4.84-.37c-0.56-.15-0.22-0.26-0.22-1a3.08,3.08,0,0,1,1-2.31,10.32,10.32,0,0,0,2.29-3.83,5.44,5.44,0,0,0,.32-3.55,5.31,5.31,0,0,1,.65-2.66c0.13-.45-0.54-0.24-0.61-0.84s0.89-.45,1-0.78-0.5-.76-0.76-1.43,0.15-1.82.22-2.64a10.92,10.92,0,0,0-.61-3.5c-0.45-1.62-.58-4.07-0.87-5.43s-1-3.46-1.1-4.13-0.41-.54-0.69-1.34-0.71-.89-1-1.9-0.89-2.64-1.45-4.52a39.83,39.83,0,0,1-1.08-6.31c-0.11-1.25-.5-1.45-0.74-2.75a6,6,0,0,0-1.08-2.68,44.66,44.66,0,0,0-1.34,7c-0.28,2.42-.43,5.06-0.67,5.71s0.24,0.76-.17,1.34,0.28,0.39-.17,1.17,0.06,0.63-.17,1.08-0.09.54-.37,1,0.17,0.52,0,1.08a3.43,3.43,0,0,0,0,1.47,60.44,60.44,0,0,1-.3,6.27c-0.22,2.34-.89,5.45-0.82,6.25a15.56,15.56,0,0,1-.15,2.9c-0.13,1.08-.15,1.12-0.19,1.6a13.58,13.58,0,0,1-.5,1.84c-0.13.45-.48,0.54,0.11,1.17s0,0.39.22,1.19,0.3,2.51.45,3.27,0.41,2.12.52,2.51a0.77,0.77,0,0,1-.69.93c-0.61.19-2.72,0.48-3.65-.22s-2.42.48-2.64,0.93-1.49.67-4.2,0.74a9.12,9.12,0,0,1-4.5-1,0.64,0.64,0,0,1-.58-0.61,5,5,0,0,1,.48-1.49c0.32-.52.84-0.78,2.18-1s1.56-.71,2.6-1.47,2.1-3.37,2.53-4.09,0.24-.43.15-1.45a2.7,2.7,0,0,1,.28-1.88c0.26-.37.43-0.43,0.22-0.87a2.07,2.07,0,0,1,0-1.64c0.24-.48.91-0.22,0.71-0.61a9.58,9.58,0,0,1-.17-2.79c0-1.58-.06-5.82.06-7.66s-0.15-3.59,0-4.35a1.53,1.53,0,0,0,0-1.34,5.29,5.29,0,0,1-.32-1.84,13,13,0,0,1,.3-2.49c0.09-.8-0.67-1.34-0.78-2.44s-0.67-5.9-.63-7.91-0.22-4.63,0-6.83,0.09-3.91.15-4.67,0.19-1.9.17-2.16a1,1,0,0,0,0-1c-0.41-.41-0.3-0.65-0.48-1.88s0.63-3.72.69-4.69-0.39-1.69-.43-3.5,0-5.38,0-6,0-.5-0.67-0.15a3.32,3.32,0,0,1-1.73.48,2.76,2.76,0,0,1-2.38-1.06,18.53,18.53,0,0,1-2.21-3.72c-0.35-1-1.67-3.76-1.82-4.37a5.8,5.8,0,0,0-.22-1,15.94,15.94,0,0,1-.32-2,3.8,3.8,0,0,1-.3-1.77,2.63,2.63,0,0,0-.11-1.21,5.15,5.15,0,0,0-.19-1.6,16.83,16.83,0,0,1-.17-2.44c0-.3-7.4,0-7.72,0A0.61,0.61,0,0,1,101,64.8a5.21,5.21,0,0,1,0-1.54,3.4,3.4,0,0,1,1.36-1.3c0.28,0,.41.39,1.36,0.74a14.14,14.14,0,0,0,4.28.22,4.49,4.49,0,0,1,1.47,0c0.37,0,.37,0,0.3-0.37a0.63,0.63,0,0,1,.58-0.67,5,5,0,0,1,1-.17,3.78,3.78,0,0,1,1.1-.32,3.74,3.74,0,0,0,1-.26c0.41-.11.32,0.17,0.63,0a2.16,2.16,0,0,1,1.21.06,2.18,2.18,0,0,1,.52.32c0.28,0.06.26,0.71,0.54,0.82s5.15-.58,7.09-0.91,2.64-.26,3-0.41,0.19-.39.15-0.67a4,4,0,0,0-1-1.19,3.72,3.72,0,0,1-.87-1.88,1.59,1.59,0,0,0-.54-1,5.59,5.59,0,0,1-.58-1.95c0-.3-0.11-0.58-0.28-0.54s-0.28,0-.71,0a0.49,0.49,0,0,1-.67-0.56c0-.5.37-1.08,0.39-1.64a2.67,2.67,0,0,1,.61-1.34c0.15-.19.11-1.95,0.3-3a8.15,8.15,0,0,1,1.79-3.4,3.54,3.54,0,0,1,1.67-.93,1.24,1.24,0,0,0,.82-0.56c0.13-.26.48-0.58,0.71-0.22s1.34-.39,3.7,1a6.7,6.7,0,0,1,3.18,4.41,8.06,8.06,0,0,0,.54,1.56,4.79,4.79,0,0,1,.65,1.54,1.09,1.09,0,0,0,.26.87,0.55,0.55,0,0,1,0,.74c-0.15.15-.28,0.32-0.39,0.09a0.71,0.71,0,0,0-.67-0.35c-0.39-.06-0.45,0-0.26.24a2,2,0,0,1,0,1.36,14.5,14.5,0,0,1-.25,1.9,0.71,0.71,0,0,1-.68.61c-0.28-.11-0.39,0-0.39.61s0.09,0.8.48,1a0.82,0.82,0,0,1,.59.74,5.43,5.43,0,0,0,.88,1.51c0.19,0.24,3.83-.22,4.37-0.22s1,0.09,1-.22-0.11-.78.11-0.8,0.13-.37-1-1.9a34.87,34.87,0,0,1-2.57-4,14.64,14.64,0,0,1,3.65-.91,16.33,16.33,0,0,1,4.22.13c0.41,0.15.45-.09,0.19,0.63a18.56,18.56,0,0,0-1,5.58,53.57,53.57,0,0,0,.26,5.71c0,0.32-.45.22-1,0.15s-0.39.06-.13,0.58a7.84,7.84,0,0,0,1,1.41,10.28,10.28,0,0,1,1,1.69,4.37,4.37,0,0,1,.71,1.95,5.11,5.11,0,0,0,.84,2,26.07,26.07,0,0,1,.78,2.6c0.35,1.08.45,0.82,0.82,1.92a3.69,3.69,0,0,1,.48,1.56c0.06,0.93,1,3,1.15,3.91a8.53,8.53,0,0,0,.61,2.05,4.37,4.37,0,0,1,.09,1.73c0.06,0.54.09,0.39,0.13,1s0.24,0.71-.24.8-0.52.65-.32,1.12-0.15.82-.24,1.75a6.48,6.48,0,0,0-.17,2,1.62,1.62,0,0,1-.45,1.38,5.31,5.31,0,0,1-.63,1.51c-0.39.41-.11,1.08-0.26,1.73a4.2,4.2,0,0,0-.45,1.3c-0.24,1.3-.43,2-0.61,2.79s-0.45,1.1-.15,1.71a2.5,2.5,0,0,1,0,1.64,2.74,2.74,0,0,0-.17,1.34c0.15,0.52-.41,1.56-0.19,1.9a1,1,0,0,1-.3,1.15,5.41,5.41,0,0,1-1.56,1.67c-0.61.35-.71,0-1-0.22s-0.22.35-.74,0.37-0.61.17-.56,1.25-0.24,1-.22,2.12a29.44,29.44,0,0,0-.13,3.76C143.48,119.1,143.48,123,144,124Zm1-36.07c0.09-1.69-.48-1.43-1-2.94s-1.51-4.11-2.29-5.75,0.74,2.08,1.47,3.94a22.42,22.42,0,0,1,1.17,5.06c0.3,1.77,0,7,.22,5.71C144.73,92.35,144.86,89.62,144.95,87.93ZM115.43,72.1a5.16,5.16,0,0,0,1.28,1.71c0.43,0.43.19,0.82,0.48,1.38s0.28-.71.56-1.25a3.68,3.68,0,0,0,.61-1.15c0.11-.54-0.17-0.54.23-1a2.93,2.93,0,0,0,.35-1.17,2.29,2.29,0,0,0,.61-1.12A14.09,14.09,0,0,0,119.8,67,2.75,2.75,0,0,1,121,65a16.42,16.42,0,0,1,2-1.19c0.61-.24-0.65,0-1.67.19s-3.68.37-4.2,0.61a1.23,1.23,0,0,0-.93,1,2.29,2.29,0,0,1-.91,1.21,1.19,1.19,0,0,0-.65.78c0,0.37-.13.67-0.39,0.67s-0.24.26-.17,0.54,0.37,0.75.67,1.58A18.51,18.51,0,0,0,115.43,72.1Z"/><line class="cls-3" x1="72.66" y1="104.6" x2="-365.09" y2="104.6"/><rect class="cls-2" x="63.21" y="90.75" width="34.81" height="9.27" transform="translate(-40.95 66.8) rotate(-36.56)"/><text class="cls-4" transform="translate(67.33 103.01) rotate(-36.56)">04 79BE667E F9DCBB<tspan x="15.52" y="0">A</tspan><tspan x="16.46" y="0">C 55A06295 CE870B</tspan><tspan x="0" y="1.67">07029B</tspan><tspan x="5.43" y="1.67">F</tspan><tspan x="6.29" y="1.67">CDB 2DCE28D9 59F2815B 16F8179</tspan><tspan x="0" y="3.35">483A</tspan><tspan x="3.61" y="3.35">D</tspan><tspan x="4.66" y="3.35">A77 26A3C465 5</tspan><tspan x="16.17" y="3.35">D</tspan><tspan x="17.21" y="3.35">A4FB</tspan><tspan x="20.95" y="3.35">F</tspan><tspan x="21.8" y="3.35">C 0E1108A8</tspan><tspan x="0" y="5.02">FD17B448 A6855419 9C47D08F FB10D4B8</tspan></text><rect class="cls-2" x="-20.55" y="69.91" width="32.6" height="16.3" rx="8.15" ry="8.15"/><text class="cls-5" transform="translate(-16.07 79.81)">F9DCBB</text><path class="cls-6" d="M-17.52,32C19,21.75,49.11,43.15,60.72,53.21"/><polygon class="cls-7" points="65.87 58.04 55.8 54.27 60.3 52.89 61.33 48.3 65.87 58.04"/><rect class="cls-2" x="9.64" y="99.97" width="34.81" height="9.27"/><text class="cls-4" transform="translate(11.81 102.79)">04 79BE667E F9DCBB<tspan x="15.52" y="0">A</tspan><tspan x="16.46" y="0">C 55A06295 CE870B</tspan><tspan x="0" y="1.67">07029B</tspan><tspan x="5.43" y="1.67">F</tspan><tspan x="6.29" y="1.67">CDB 2DCE28D9 59F2815B 16F8179</tspan><tspan x="0" y="3.35">483A</tspan><tspan x="3.61" y="3.35">D</tspan><tspan x="4.66" y="3.35">A77 26A3C465 5</tspan><tspan x="16.17" y="3.35">D</tspan><tspan x="17.21" y="3.35">A4FB</tspan><tspan x="20.95" y="3.35">F</tspan><tspan x="21.8" y="3.35">C 0E1108A8</tspan><tspan x="0" y="5.02">FD17B448 A6855419 9C47D08F FB10D4B8</tspan></text><text class="cls-8" transform="translate(107.28 171.6)">5<tspan x="3.17" y="0">D</tspan><tspan x="6.92" y="0">A4FB</tspan><tspan x="20.3" y="0">F</tspan><tspan x="23.38" y="0">C 0E1108A8</tspan></text><rect class="cls-9" x="0.32" y="-228.85" width="173.77" height="229.09"/><rect class="cls-9" x="0.32" y="-0.24" width="173.77" height="229.09"/></svg>